<svg width="15" height="15" viewBox="0 0 15 15" fill="none" xmlns="http://www.w3.org/2000/svg">
<path d="M7.49999 0C3.35481 0 0 3.35437 0 7.49999C0 11.6452 3.35437 15 7.49999 15C11.6452 15 15 11.6456 15 7.49999C15 3.35481 11.6456 0 7.49999 0ZM7.49999 13.9535C3.94154 13.9535 1.04651 11.0584 1.04651 7.49999C1.04651 3.94154 3.94154 1.04651 7.49999 1.04651C11.0584 1.04651 13.9535 3.94154 13.9535 7.49999C13.9535 11.0584 11.0584 13.9535 7.49999 13.9535Z" fill="white"/>
<path d="M7.50005 5.96509C7.21106 5.96509 6.97681 6.19937 6.97681 6.48833V10.779C6.97681 11.068 7.21109 11.3023 7.50005 11.3023C7.789 11.3023 8.02329 11.068 8.02329 10.779V6.48836C8.02329 6.19937 7.78903 5.96509 7.50005 5.96509Z" fill="white"/>
<path d="M7.50005 3.69775C7.21106 3.69775 6.97681 3.93204 6.97681 4.221V4.84891C6.97681 5.1379 7.21109 5.37216 7.50005 5.37216C7.789 5.37216 8.02329 5.13787 8.02329 4.84891V4.221C8.02329 3.93204 7.78903 3.69775 7.50005 3.69775Z" fill="white"/>
</svg>
