<svg width="15" height="15" viewBox="0 0 15 15" fill="none" xmlns="http://www.w3.org/2000/svg">
<path d="M11.4341 11.9084L9.5842 10.0585C9.3945 9.86873 9.0534 9.76349 8.75484 9.80295C8.47344 9.83999 8.23939 9.99731 8.09586 10.2459C7.66344 10.9948 7.25349 11.402 6.84255 11.4905C6.51556 11.561 6.14801 11.4393 5.68582 11.1075C5.55437 11.0131 5.37135 11.0432 5.27698 11.1746C5.18259 11.306 5.21268 11.4891 5.3441 11.5834C5.95031 12.0187 6.46564 12.1712 6.966 12.0633C7.38837 11.9723 7.77503 11.6981 8.15402 11.2147L10.4242 13.4849C10.3976 13.5027 10.3705 13.5205 10.3425 13.5383C8.94333 14.4276 6.10673 15.4325 2.83029 12.1707C-0.432381 8.89341 0.572412 6.05671 1.46172 4.6575C1.47947 4.62955 1.49728 4.60242 1.51512 4.57582L3.78533 6.846C3.30197 7.22498 3.02775 7.61161 2.93672 8.03398C2.82888 8.53423 2.98134 9.04956 3.41649 9.65574C3.51088 9.78713 3.6939 9.81722 3.82535 9.72289C3.95678 9.62849 3.98687 9.44548 3.89247 9.31402C3.56072 8.85189 3.43902 8.48436 3.50951 8.15741C3.59807 7.74646 4.00521 7.33648 4.75412 6.90409C5.00274 6.76057 5.16006 6.52652 5.19709 6.24512C5.23641 5.94653 5.13135 5.60545 4.94162 5.41579L3.09179 3.56587C3.04219 3.51469 2.75602 3.24316 2.30028 3.28561C1.83425 3.32886 1.38572 3.68464 0.967186 4.34314C0.498525 5.08063 -0.0491497 6.26815 0.003526 7.73776C0.0633208 9.40628 0.874637 11.0368 2.41594 12.585C3.96323 14.1254 5.59377 14.9367 7.26228 14.9965C7.32849 14.9989 7.39394 15 7.45898 15C8.83778 15 9.95264 14.4804 10.6568 14.0328C11.3154 13.6143 11.6711 13.1658 11.7144 12.6997C11.7566 12.2445 11.4856 11.9582 11.4341 11.9084ZM2.34584 3.87C2.53011 3.84917 2.65249 3.95631 2.67001 3.97283C2.67238 3.97555 2.67115 3.97394 2.67537 3.97819L4.52734 5.83019C4.56964 5.87249 4.6355 6.02182 4.61616 6.16877C4.60272 6.27102 4.55344 6.34347 4.46115 6.39676C4.39711 6.43373 4.33541 6.47068 4.27556 6.50762L1.88983 4.12192C2.04947 3.97286 2.20439 3.88588 2.34584 3.87ZM8.60331 10.5389C8.65661 10.4466 8.72906 10.3974 8.8313 10.3839C8.9784 10.3645 9.12755 10.4305 9.16992 10.4728L11.0219 12.3247C11.0261 12.3289 11.0245 12.3277 11.0272 12.3301C11.0438 12.3477 11.1508 12.4696 11.1301 12.6542C11.1142 12.7957 11.0272 12.9506 10.8782 13.1102L8.49249 10.7245C8.5294 10.6647 8.56634 10.603 8.60331 10.5389Z" fill="white"/>
<path d="M10.6055 0C8.18232 0 6.21094 1.97138 6.21094 4.39452C6.21094 5.19711 6.42788 5.97766 6.83953 6.66043L6.57472 7.64875C6.48375 7.98584 6.68391 8.33418 7.02094 8.42527C7.13083 8.45492 7.24661 8.4545 7.356 8.42398L8.33959 8.16042C9.02241 8.57207 9.80299 8.78905 10.6055 8.78905C13.0286 8.78905 15 6.81766 15 4.39452C15 1.97138 13.0286 0 10.6055 0V0ZM10.6055 8.20311C9.87166 8.20311 9.15928 7.99396 8.54531 7.59828C8.49752 7.56749 8.44236 7.55155 8.38661 7.55155C8.36124 7.55155 8.33575 7.55483 8.31079 7.56154L7.20272 7.85843C7.20138 7.85878 7.20003 7.85914 7.19871 7.85952C7.19045 7.86189 7.1823 7.86186 7.17381 7.8596C7.14858 7.85278 7.13358 7.8267 7.14053 7.80092L7.43842 6.68923C7.4598 6.60936 7.44647 6.52417 7.40168 6.45468C7.00599 5.84079 6.79684 5.12838 6.79684 4.39452C6.79684 2.29444 8.50535 0.585936 10.6054 0.585936C12.7055 0.585936 14.414 2.29444 14.414 4.39452C14.414 6.49461 12.7055 8.20311 10.6055 8.20311Z" fill="white"/>
<path d="M10.6055 1.75781C9.15158 1.75781 7.96875 2.94064 7.96875 4.39453C7.96875 5.84841 9.15158 7.03124 10.6055 7.03124C12.0593 7.03124 13.2422 5.84841 13.2422 4.39453C13.2422 2.94064 12.0593 1.75781 10.6055 1.75781ZM10.6055 6.4453C9.47467 6.4453 8.55469 5.52532 8.55469 4.39453C8.55469 3.26373 9.47467 2.34375 10.6055 2.34375C11.7363 2.34375 12.6562 3.26373 12.6562 4.39453C12.6562 5.52532 11.7363 6.4453 10.6055 6.4453Z" fill="white"/>
<path d="M11.227 4.86947C11.061 5.03547 10.8403 5.1269 10.6055 5.1269C10.3707 5.1269 10.15 5.0355 9.98404 4.8695C9.86973 4.75513 9.68419 4.7551 9.56973 4.86947C9.45526 4.98385 9.45529 5.16935 9.5697 5.28379C9.84632 5.56047 10.2142 5.71287 10.6055 5.71287C10.9967 5.71287 11.3646 5.5605 11.6413 5.28382C11.7557 5.16941 11.7557 4.98391 11.6413 4.86947C11.5269 4.7551 11.3414 4.7551 11.227 4.86947Z" fill="white"/>
<path d="M9.72656 4.24804C9.88834 4.24804 10.0195 4.11676 10.0195 3.95496C10.0195 3.79315 9.88834 3.66199 9.72656 3.66199C9.56478 3.66199 9.43359 3.79318 9.43359 3.95496V3.95519C9.43359 4.11697 9.56478 4.24804 9.72656 4.24804Z" fill="white"/>
<path d="M11.4844 3.66199C11.3226 3.66199 11.1914 3.79318 11.1914 3.95496V3.95519C11.1914 4.11697 11.3226 4.24804 11.4844 4.24804C11.6462 4.24804 11.7773 4.11676 11.7773 3.95496C11.7773 3.79315 11.6462 3.66199 11.4844 3.66199Z" fill="white"/>
<path d="M4.52526 10.1819H4.52503C4.36325 10.1819 4.23218 10.3131 4.23218 10.4749C4.23218 10.6366 4.36346 10.7678 4.52526 10.7678C4.68707 10.7678 4.81823 10.6366 4.81823 10.4749C4.81823 10.3131 4.68707 10.1819 4.52526 10.1819Z" fill="white"/>
</svg>
