<svg width="15" height="15" viewBox="0 0 15 15" fill="none" xmlns="http://www.w3.org/2000/svg">
<path d="M13.6816 0H5.74219C5.01524 0 4.42383 0.591416 4.42383 1.31836V4.42383C2.96994 4.42383 1.78711 5.60666 1.78711 7.06055V7.93945C1.78711 8.88735 2.28999 9.71991 3.04289 10.1847L1.87447 10.3582C0.798428 10.518 0 11.4429 0 12.5317V14.5605C0 14.8032 0.196758 15 0.439453 15H8.37891C8.6216 15 8.81836 14.8032 8.81836 14.5605V12.536C8.81836 11.4458 8.01782 10.5189 6.93773 10.3617L5.78918 10.1944C6.30495 9.88096 6.70506 9.39551 6.90973 8.81836H9.61796L9.26379 10.9434C9.21897 11.2122 9.42727 11.4551 9.69715 11.4551C9.8119 11.4551 9.92517 11.4101 10.0097 11.3246L12.4881 8.81836H13.6816C14.4086 8.81836 15 8.22694 15 7.5V1.31836C15 0.591416 14.4086 0 13.6816 0ZM4.42383 5.30273C5.07302 5.30273 5.64073 5.65676 5.94516 6.18164H4.86328C4.74486 6.18164 4.6362 6.22462 4.55353 6.30932C4.51034 6.35065 3.89062 6.92326 2.66654 7.03966C2.67782 6.08004 3.46157 5.30273 4.42383 5.30273ZM2.66602 7.92185C3.92719 7.82089 4.71609 7.30582 5.02562 7.06055H6.18164V7.93945C6.18164 8.90871 5.39309 9.69727 4.42383 9.69727C3.48067 9.69727 2.66602 8.94149 2.66602 7.92185ZM3.98438 10.5393C4.27567 10.5884 4.57178 10.5885 4.86328 10.5393V11.4101C4.86328 11.4349 4.84312 11.4551 4.81834 11.4551H4.02929C4.0045 11.4551 3.98435 11.4349 3.98435 11.4101V10.5393H3.98438ZM0.878906 12.5607L1.78711 13.0387V14.1211H0.878906V12.5607ZM7.06055 14.1211V13.0366L7.93945 12.5657V14.1211H7.06055ZM7.65463 11.7212L6.41358 12.386C6.27076 12.4626 6.18164 12.6114 6.18164 12.7734V14.1211H2.66602V12.7734C2.66602 12.6103 2.57563 12.4605 2.43123 12.3846L1.16358 11.7174C1.36638 11.4604 1.66269 11.2782 2.00358 11.2276L3.10547 11.064V11.4102C3.10547 11.9196 3.5199 12.334 4.02932 12.334H4.81837C5.32775 12.334 5.74219 11.9196 5.74219 11.4101V11.0757L6.81108 11.2314C7.15354 11.2813 7.45113 11.4636 7.65463 11.7212ZM14.1211 7.5C14.1211 7.74231 13.924 7.93945 13.6816 7.93945H12.3047C12.1873 7.93945 12.0748 7.98645 11.9922 8.06991L10.3583 9.72214L10.5702 8.45118C10.6148 8.18335 10.408 7.93945 10.1367 7.93945H7.06055V7.06055C7.06055 5.91472 6.32578 4.93743 5.30273 4.57465V1.31836C5.30273 1.07604 5.49987 0.878906 5.74219 0.878906H13.6816C13.924 0.878906 14.1211 1.07604 14.1211 1.31836V7.5Z" fill="white"/>
<path d="M10 2C8.8972 2 8 2.79751 8 3.77778C8 4.02323 8.22387 4.22222 8.5 4.22222C8.77613 4.22222 9 4.02323 9 3.77778C9 3.28764 9.4486 2.88889 10 2.88889C10.5514 2.88889 11 3.28764 11 3.77778C11 4.26791 10.5514 4.66667 10 4.66667C9.72387 4.66667 9.5 4.86566 9.5 5.11111V5.55556C9.5 5.80101 9.72387 6 10 6C10.2761 6 10.5 5.80101 10.5 5.55556V5.49932C11.3617 5.30145 12 4.60465 12 3.77778C12 2.79751 11.1028 2 10 2Z" fill="white"/>
</svg>
