<svg id="all-icon" xmlns="http://www.w3.org/2000/svg" width="33" height="33" viewBox="0 0 33 33">
  <path id="Path_1" data-name="Path 1" d="M15.2,3.287v8.626A3.287,3.287,0,0,1,11.913,15.2H3.286A3.287,3.287,0,0,1,0,11.913V3.287A3.288,3.288,0,0,1,3.286,0h8.627A3.286,3.286,0,0,1,15.2,3.287ZM29.714,0H21.087A3.288,3.288,0,0,0,17.8,3.287v8.626A3.287,3.287,0,0,0,21.087,15.2h8.627A3.287,3.287,0,0,0,33,11.913V3.287A3.288,3.288,0,0,0,29.714,0Zm-17.8,17.8H3.286A3.286,3.286,0,0,0,0,21.087v8.627A3.288,3.288,0,0,0,3.286,33h8.627A3.288,3.288,0,0,0,15.2,29.714V21.087A3.284,3.284,0,0,0,11.913,17.8Zm17.8,0H21.087A3.287,3.287,0,0,0,17.8,21.087v8.627A3.288,3.288,0,0,0,21.087,33h8.627A3.288,3.288,0,0,0,33,29.714V21.087A3.286,3.286,0,0,0,29.714,17.8Z" fill="#fff"/>
</svg>
