<svg class="SVGInline-svg home-link__image-svg" viewBox="0 0 66 66" fill="none" xmlns="http://www.w3.org/2000/svg"><path d="M60.1991 0H5.80061C4.90768 0 4.07172 0.219527 3.31543 0.581367L28.8986 26.2934C31.1606 28.5554 34.8391 28.5554 37.1011 26.2934L62.6842 0.581367C61.9279 0.219527 61.092 0 60.1991 0Z" fill="#eed024"></path><path d="M65.4188 3.31567L45.4023 23.461L65.4188 43.3485C65.7806 42.5922 66.0001 41.7563 66.0001 40.8634V5.80086C66.0001 4.90792 65.7806 4.07197 65.4188 3.31567Z" fill="#eed024"></path><path d="M0.581367 3.31567C0.219527 4.07197 0 4.90792 0 5.80086V40.8634C0 41.7563 0.219527 42.5922 0.581367 43.3485L20.5978 23.461L0.581367 3.31567Z" fill="#eed024"></path><path d="M42.6678 26.1951L39.8353 29.0275C36.0567 32.8062 29.9429 32.8062 26.1642 29.0275L23.3319 26.1951L3.31543 46.0826C4.07172 46.4444 4.90768 46.664 5.80061 46.664H16.6665C19.0688 39.9265 25.4475 35.0624 32.9998 35.0624C40.5522 35.0624 46.9309 39.9265 49.3332 46.664H60.1991C61.092 46.664 61.9279 46.4444 62.6842 46.0826L42.6678 26.1951Z" fill="#eed024"></path><path d="M33 38.9297C25.5375 38.9297 19.4648 45.0023 19.4648 52.4648C19.4648 59.9274 25.5375 66 33 66C40.4625 66 46.5352 59.9274 46.5352 52.4648C46.5352 45.0023 40.4625 38.9297 33 38.9297ZM33 60.1992C31.9321 60.1992 31.0664 59.3335 31.0664 58.2656C31.0664 57.1978 31.9321 56.332 33 56.332C34.0679 56.332 34.9336 57.1978 34.9336 58.2656C34.9336 59.3335 34.0679 60.1992 33 60.1992ZM34.9336 50.5312C34.9336 51.6 34.0688 52.4648 33 52.4648C31.9312 52.4648 31.0664 51.6 31.0664 50.5312V46.6641C31.0664 45.5953 31.9312 44.7305 33 44.7305C34.0688 44.7305 34.9336 45.5953 34.9336 46.6641V50.5312Z" fill="#eed024"></path></svg>