<svg width="23" height="14" viewBox="0 0 23 14" fill="none" xmlns="http://www.w3.org/2000/svg">
<path d="M16.4887 9.88889C18.3028 8.07483 18.3028 5.26304 16.4887 3.44898" stroke="#FFFBF6" stroke-width="2" stroke-linecap="round" stroke-linejoin="round"/>
<path d="M19.1192 12.5193C22.2938 9.34466 22.2938 4.17459 19.1192 0.999989" stroke="#FFFBF6" stroke-width="2" stroke-linecap="round" stroke-linejoin="round"/>
<path d="M6.51139 9.88889C4.69733 8.07483 4.69733 5.26304 6.51139 3.44898" stroke="#FFFBF6" stroke-width="2" stroke-linecap="round" stroke-linejoin="round"/>
<path d="M3.88101 12.5193C0.70641 9.34466 0.70641 4.17459 3.88101 0.999989" stroke="#FFFBF6" stroke-width="2" stroke-linecap="round" stroke-linejoin="round"/>
<path d="M11.5002 8.52819C12.502 8.52819 13.3142 7.71601 13.3142 6.71413C13.3142 5.71225 12.502 4.90007 11.5002 4.90007C10.4983 4.90007 9.6861 5.71225 9.6861 6.71413C9.6861 7.71601 10.4983 8.52819 11.5002 8.52819Z" stroke="#FFFBF6" stroke-width="2" stroke-linecap="round" stroke-linejoin="round"/>
</svg>
