<svg width="40" height="40" viewBox="0 0 40 40" fill="none" xmlns="http://www.w3.org/2000/svg">
    <path d="M26.9909 13.0091C25.2019 11.22 22.7302 10.1137 20 10.1137C17.2698 10.1137 14.7978 11.22 13.0091 13.0091C11.2204 14.7978 10.1137 17.2698 10.1137 20C10.1137 22.7302 11.2204 25.2019 13.0091 26.9909C14.7978 28.7799 17.2698 29.8863 20 29.8863C22.7302 29.8863 25.2019 28.7799 26.9909 26.9909C28.7799 25.2019 29.8863 22.7302 29.8863 20C29.8863 17.2698 28.7799 14.7978 26.9909 13.0091ZM20.8479 8.44863C22.3433 8.55674 23.7599 8.94868 25.0442 9.5713L26.7693 6.58403C24.9726 5.67613 22.9692 5.11787 20.8479 5V8.44863ZM26.5086 10.4185C27.1124 10.8296 27.6754 11.2956 28.1899 11.8101C28.7044 12.3246 29.1708 12.8872 29.5815 13.4914L32.5688 11.7664C32.0026 10.904 31.3503 10.1032 30.6236 9.37642C29.8968 8.64966 29.096 7.9974 28.2333 7.43118L26.5086 10.4185ZM30.4291 14.9554C31.051 16.2397 31.4433 17.6567 31.5514 19.1521H35C34.8818 17.0312 34.3242 15.0274 33.416 13.2311L30.4291 14.9554ZM31.5514 20.8479C31.4433 22.3433 31.051 23.7599 30.4287 25.0442L33.416 26.7689C34.3242 24.9726 34.8821 22.9692 35 20.8479H31.5514ZM29.5815 26.5086C29.1708 27.1124 28.7044 27.6754 28.1899 28.1899C27.6754 28.7044 27.1124 29.1704 26.5086 29.5815L28.2333 32.5688C29.096 32.0026 29.8968 31.3503 30.6236 30.6236C31.3503 29.8968 32.003 29.096 32.5688 28.2333L29.5815 26.5086ZM25.0442 30.4287C23.7599 31.051 22.3433 31.4433 20.8479 31.5514V35C22.9692 34.8818 24.9726 34.3242 26.7693 33.416L25.0442 30.4287ZM19.1521 31.5514C17.6567 31.4433 16.2397 31.0513 14.9554 30.4291L13.2311 33.416C15.0274 34.3242 17.0312 34.8818 19.1521 35V31.5514ZM13.4914 29.5815C12.8876 29.1708 12.3246 28.7044 11.8101 28.1899C11.2956 27.675 10.8296 27.1124 10.4188 26.5086L7.43118 28.2333C7.9974 29.096 8.64966 29.8968 9.37642 30.6236C10.1032 31.3503 10.904 32.0026 11.7667 32.5688L13.4914 29.5815ZM9.5713 25.0442C8.94904 23.7599 8.55674 22.3433 8.44863 20.8479H5C5.11787 22.9692 5.67613 24.9726 6.58403 26.7689L9.5713 25.0442ZM8.44863 19.1521C8.55674 17.6567 8.94868 16.2397 9.5713 14.9554L6.58403 13.2311C5.67613 15.0274 5.11787 17.0312 5 19.1521H8.44863ZM10.4185 13.4914C10.8292 12.8872 11.2956 12.3246 11.8101 11.8101C12.3246 11.2956 12.8876 10.8292 13.4914 10.4185L11.7667 7.43118C10.904 7.9974 10.1032 8.64966 9.37642 9.37642C8.64966 10.1032 7.9974 10.904 7.43118 11.7664L10.4185 13.4914ZM14.9554 9.5713C16.2397 8.94904 17.6567 8.55674 19.1521 8.44863V5C17.0312 5.11787 15.0274 5.67613 13.2311 6.58403L14.9554 9.5713ZM15.2902 22.284L17.1917 21.9778C17.3472 23.0997 17.9391 23.9122 19.0433 24.2086V20.5518C18.2449 20.3254 17.6563 20.1222 17.2752 19.9418C16.2361 19.4396 15.6178 18.51 15.6178 17.3483C15.6178 16.8417 15.7346 16.3753 15.9642 15.9457C16.4508 15.048 17.174 14.6014 18.1278 14.3172C18.4218 14.2305 18.7266 14.1679 19.0433 14.1307V12.6797H20.9574V14.1715C21.3772 14.2355 21.7663 14.336 22.1238 14.4738C23.4982 14.9941 24.0412 15.8619 24.273 17.2788L22.3932 17.5413C22.2717 16.6837 21.7872 16.0495 20.9574 15.7971V19.022C22.8181 19.5484 24.7101 19.9917 24.7101 22.335C24.7101 23.757 23.8008 24.8902 22.5317 25.4495C22.0494 25.6607 21.5244 25.7992 20.9574 25.8657V27.3203H19.0433V25.8476C16.9032 25.579 15.676 24.4354 15.2902 22.284ZM20.9574 24.2759C21.4376 24.1953 21.8187 24.0369 22.1018 23.7994C22.5281 23.4425 22.7432 23.0198 22.7432 22.5353C22.7432 21.5255 21.7413 21.2879 20.9574 21.0634V24.2759ZM19.0433 15.7227C18.3028 15.8394 17.4755 16.2657 17.4755 17.1223C17.4755 17.7283 17.9224 18.096 18.4445 18.3061C18.5451 18.3437 18.7436 18.4062 19.0433 18.493V15.7227Z" fill="#fece2f"/>
</svg>
