<?xml version="1.0" encoding="iso-8859-1"?>
<!-- Generator: Adobe Illustrator 19.0.0, SVG Export Plug-In . SVG Version: 6.00 Build 0)  -->
<svg version="1.1" id="Capa_1" xmlns="http://www.w3.org/2000/svg" xmlns:xlink="http://www.w3.org/1999/xlink" x="0px" y="0px"
	 viewBox="0 0 512 512" style="enable-background:new 0 0 512 512;" xml:space="preserve">
<path style="fill:#4B5055;" d="M272.263,26.89V485.11c0,14.852-12.038,26.89-26.89,26.89H34.306c-14.852,0-26.89-12.038-26.89-26.89
	V26.89C7.416,12.038,19.454,0,34.306,0h211.067C260.225,0,272.263,12.038,272.263,26.89z"/>
<path style="fill:#7D8287;" d="M272.263,26.89V485.11c0,14.852-12.038,26.89-26.89,26.89H68.471c-14.842,0-26.88-12.038-26.88-26.89
	V26.89C41.591,12.038,53.63,0,68.471,0h176.902C260.225,0,272.263,12.038,272.263,26.89z"/>
<path style="fill:#D2D2D7;" d="M272.263,75.449v376.064c0,13.362-10.82,24.201-24.193,24.201H31.609
	c-13.373,0-24.193-10.84-24.193-24.201V75.449c0-13.362,10.82-24.201,24.193-24.201H248.07
	C261.444,51.248,272.263,62.087,272.263,75.449z"/>
<path style="fill:#EBEBF0;" d="M272.263,75.449v376.064c0,13.362-10.854,24.201-24.271,24.201H65.863
	c-13.417,0-24.271-10.84-24.271-24.201V75.449c0-13.362,10.854-24.201,24.271-24.201h182.13
	C261.409,51.248,272.263,62.087,272.263,75.449z"/>
<g>
	<circle style="fill:#4B5055;" cx="196.404" cy="27.667" r="9.401"/>
	<path style="fill:#4B5055;" d="M171.254,19.85H72.553c-4.318,0-7.817,3.5-7.817,7.817s3.499,7.817,7.817,7.817h98.701
		c4.318,0,7.817-3.5,7.817-7.817S175.572,19.85,171.254,19.85z"/>
</g>
<path style="fill:#000;" d="M504.584,322.726c0,79.108-57.647,144.739-133.232,157.173c-8.474,1.386-17.187,2.116-26.056,2.116
	c-87.967,0-159.289-71.311-159.289-159.289c0-87.967,71.322-159.289,159.289-159.289c8.87,0,17.583,0.73,26.056,2.116
	C446.937,177.997,504.584,243.628,504.584,322.726z"/>
<path style="fill:#0000;" d="M504.584,322.726c0,79.108-57.647,144.739-133.232,157.173
	c-75.574-12.434-133.232-78.065-133.232-157.173c0-79.097,57.658-144.728,133.232-157.173
	C446.937,177.997,504.584,243.628,504.584,322.726z"/>
<path style="fill:#fece2f;" d="M461.302,333.634c0,63.961-52.041,116.003-116.003,116.003c-63.97,0-116.011-52.041-116.011-116.003
	c0-29.917,11.396-58.335,32.093-80.024c15.99-16.764,36.236-28.176,58.376-33.157c-1.701-2.716-2.555-5.892-2.418-9.172
	c0.169-4.303,2.006-8.278,5.166-11.195c3.845-3.554,8.971-4.876,13.766-4.014c3.345,0.588,6.529,2.233,9.01,4.916l20.149,21.826
	c5.803,6.279,5.682,16.006-0.257,22.148l-11.461,11.832l-9.273,9.571c-2.807,2.896-6.539,4.807-10.56,5.113
	c-4.679,0.356-9.161-1.272-12.485-4.489c-3.369-3.264-5.005-7.656-4.892-12.017c-32.166,11.815-54.975,42.821-54.975,78.663
	c0,46.19,37.582,83.763,83.772,83.763c46.182,0,83.763-37.573,83.763-83.763c0-21.185-7.965-41.157-21.76-56.343
	c-5.669-6.24-5.751-15.729-0.009-21.901l0.067-0.072c6.374-6.853,17.268-6.862,23.583,0.045
	C450.186,276.413,461.302,304.177,461.302,333.634z"/>
<g>
</g>
<g>
</g>
<g>
</g>
<g>
</g>
<g>
</g>
<g>
</g>
<g>
</g>
<g>
</g>
<g>
</g>
<g>
</g>
<g>
</g>
<g>
</g>
<g>
</g>
<g>
</g>
<g>
</g>
</svg>
