<svg class="SVGInline-svg home-link__image-svg" viewBox="0 0 74 74" fill="none" xmlns="http://www.w3.org/2000/svg"><path d="M4.85822 27.113C5.2472 28.4467 5.78701 29.7327 6.46971 30.9393L4.5248 33.3923C3.88973 34.1941 3.96118 35.3372 4.67563 36.0596L8.02563 39.4096C8.74803 40.132 9.89115 40.1954 10.6929 39.5604L13.13 37.6313C14.3843 38.3538 15.7179 38.9173 17.1072 39.3143L17.4723 42.4499C17.5914 43.466 18.4487 44.2281 19.4649 44.2281H24.2041C25.2202 44.2281 26.0775 43.466 26.1966 42.4499L26.5459 39.4254C28.0383 39.0364 29.4672 38.4569 30.8088 37.7028L33.1665 39.5683C33.9683 40.2034 35.1114 40.1319 35.8338 39.4175L39.1838 36.0675C39.9062 35.3451 39.9697 34.2019 39.3346 33.4002L37.5009 31.0742C38.263 29.7564 38.8583 28.3513 39.2553 26.8827L42.0813 26.5573C43.0975 26.4382 43.8595 25.5809 43.8595 24.5647V19.8255C43.8595 18.8094 43.0974 17.9521 42.0813 17.833L39.295 17.5075C38.9138 16.0548 38.3423 14.6656 37.6121 13.3637L39.3268 11.1965C39.9619 10.3947 39.8904 9.25158 39.176 8.52919L35.8339 5.18713C35.1115 4.46474 33.9684 4.40123 33.1666 5.0363L31.0629 6.70336C29.6975 5.90158 28.2368 5.29033 26.7047 4.87753L26.3872 2.15466C26.2681 1.13855 25.4108 0.376465 24.3947 0.376465H19.6555C18.6393 0.376465 17.782 1.13855 17.6629 2.15466L17.3454 4.87753C15.7736 5.29827 14.2732 5.93334 12.8761 6.76687L10.693 5.0363C9.89123 4.40123 8.74811 4.47267 8.02571 5.18713L4.67571 8.53713C3.95332 9.25952 3.88981 10.4026 4.52488 11.2044L6.35071 13.5145C5.62038 14.8323 5.06469 16.2374 4.69953 17.698L1.7782 18.0314C0.762085 18.1505 0 19.0079 0 20.024V24.7632C0 25.7793 0.762085 26.6367 1.7782 26.7557L4.85822 27.113ZM22.029 14.2925C26.3474 14.2925 29.8641 17.8092 29.8641 22.1277C29.8641 26.4462 26.3474 29.9629 22.029 29.9629C17.7105 29.9629 14.1938 26.4462 14.1938 22.1277C14.1938 17.8092 17.7105 14.2925 22.029 14.2925Z" fill="#eed024"></path><path d="M68.8811 28.2796L66.3805 26.168C65.6105 25.5171 64.4753 25.5488 63.745 26.2395L62.3637 27.5334C61.1969 26.9698 59.9585 26.5729 58.6803 26.3427L58.2915 24.4375C58.093 23.4531 57.1801 22.7704 56.1797 22.8498L52.917 23.1276C51.9168 23.2149 51.1309 24.0326 51.0991 25.0408L51.0357 26.9777C49.7814 27.4302 48.5985 28.0494 47.5189 28.8274L45.8678 27.7319C45.0262 27.1762 43.907 27.335 43.2561 28.105L41.1445 30.6215C40.4935 31.3915 40.5252 32.5267 41.2158 33.257L42.6606 34.797C42.1604 35.9242 41.8032 37.1071 41.5969 38.3216L39.5329 38.7424C38.5486 38.9408 37.8658 39.8537 37.9452 40.854L38.2231 44.1167C38.3104 45.117 39.1281 45.9029 40.1362 45.9346L42.3669 46.006C42.7719 47.0697 43.3037 48.078 43.9467 49.0226L42.7004 50.904C42.1447 51.7454 42.3035 52.8647 43.0734 53.5157L45.574 55.6273C46.3441 56.2783 47.4792 56.2465 48.2097 55.5559L49.845 54.0238C50.9166 54.5239 52.0438 54.897 53.2028 55.1193L53.6554 57.3579C53.8538 58.3422 54.7668 59.0249 55.767 58.9456L59.0297 58.6677C60.0299 58.5804 60.8158 57.7628 60.8476 56.7546L60.919 54.5635C62.1098 54.1427 63.2369 53.5712 64.2769 52.8647L66.079 54.0555C66.9204 54.6112 68.0397 54.4524 68.6907 53.6824L70.8023 51.1818C71.4532 50.4118 71.4214 49.2766 70.7309 48.5463L69.2781 47.0063C69.81 45.879 70.1991 44.6883 70.4212 43.4657L72.4058 43.0608C73.3901 42.8624 74.0728 41.9495 73.9935 40.9491L73.7156 37.6865C73.6283 36.6862 72.8106 35.9003 71.8025 35.8686L69.8099 35.8051C69.3971 34.6461 68.8414 33.5506 68.1508 32.5345L69.2383 30.8991C69.8099 30.0578 69.6512 28.9306 68.8811 28.2796ZM56.5847 47.1412C53.06 47.4429 49.948 44.8152 49.6544 41.2907C49.3526 37.766 51.9804 34.6541 55.5049 34.3604C59.0295 34.0587 62.1415 36.6864 62.4352 40.211C62.7369 43.7357 60.1091 46.8475 56.5847 47.1412Z" fill="#eed024"></path><path d="M16.2735 55.9211C15.2732 56.0243 14.5032 56.8656 14.4953 57.8739L14.4714 59.8823C14.4556 60.8905 15.2018 61.7478 16.202 61.8749L17.6785 62.0654C17.9246 62.9625 18.2739 63.8198 18.7264 64.6295L17.7738 65.8044C17.1387 66.5903 17.1864 67.7176 17.8929 68.44L19.298 69.8768C20.0045 70.5992 21.1317 70.6786 21.9335 70.0594L23.1163 69.1465C23.9498 69.6387 24.831 70.0277 25.7518 70.2976L25.9106 71.8217C26.0138 72.822 26.8552 73.592 27.8634 73.5999L29.8719 73.6237C30.88 73.6396 31.7374 72.8934 31.8644 71.8932L32.047 70.4484C33.0473 70.2022 34 69.8292 34.9049 69.337L36.0162 70.2341C36.8021 70.8691 37.9295 70.8215 38.6519 70.115L40.0887 68.7099C40.8111 68.0034 40.8905 66.8761 40.2714 66.0743L39.4218 64.9708C39.9457 64.0976 40.3507 63.1688 40.6285 62.1924L41.9463 62.0574C42.9465 61.9542 43.7165 61.1128 43.7245 60.1046L43.7482 58.0961C43.7642 57.088 43.018 56.2306 42.0177 56.1036L40.7316 55.9369C40.4855 54.9684 40.1205 54.0316 39.6441 53.1584L40.4459 52.1741C41.081 51.3882 41.0334 50.2609 40.3269 49.5385L38.9218 48.1017C38.2153 47.3792 37.0879 47.2998 36.2862 47.9191L35.3256 48.6573C34.4207 48.1096 33.4521 47.6889 32.4361 47.4031L32.309 46.1568C32.2058 45.1564 31.3644 44.3865 30.3562 44.3786L28.3477 44.3547C27.3396 44.3389 26.4822 45.0851 26.3551 46.0853L26.1964 47.3238C25.1486 47.5936 24.1404 48.0065 23.2037 48.5462L22.2114 47.7365C21.4255 47.1014 20.2981 47.1491 19.5757 47.8556L18.131 49.2687C17.4086 49.9751 17.3292 51.1024 17.9484 51.9041L18.7978 52.9997C18.3056 53.8729 17.9166 54.8017 17.6626 55.7782L16.2735 55.9211ZM29.2368 53.6506C32.1185 53.6823 34.4285 56.056 34.3968 58.9376C34.365 61.8193 31.9914 64.1293 29.1097 64.0976C26.2281 64.0658 23.9181 61.6923 23.9498 58.8105C23.9816 55.929 26.3552 53.6189 29.2368 53.6506Z" fill="#eed024"></path></svg>