<svg width="40" height="40" viewBox="0 0 40 40" fill="none" xmlns="http://www.w3.org/2000/svg">
<mask id="path-1-inside-1" fill="white">
<path d="M3.33331 10.6667C3.33331 8.45753 5.12417 6.66667 7.33331 6.66667H32.6666C34.8758 6.66667 36.6666 8.45753 36.6666 10.6667V29.3333C36.6666 31.5425 34.8758 33.3333 32.6666 33.3333H7.33331C5.12417 33.3333 3.33331 31.5425 3.33331 29.3333V10.6667Z"/>
</mask>
<path d="M7.33331 8.66667H32.6666V4.66667H7.33331V8.66667ZM34.6666 10.6667V29.3333H38.6666V10.6667H34.6666ZM32.6666 31.3333H7.33331V35.3333H32.6666V31.3333ZM5.33331 29.3333V10.6667H1.33331V29.3333H5.33331ZM7.33331 31.3333C6.22874 31.3333 5.33331 30.4379 5.33331 29.3333H1.33331C1.33331 32.647 4.01961 35.3333 7.33331 35.3333V31.3333ZM34.6666 29.3333C34.6666 30.4379 33.7712 31.3333 32.6666 31.3333V35.3333C35.9804 35.3333 38.6666 32.6471 38.6666 29.3333H34.6666ZM32.6666 8.66667C33.7712 8.66667 34.6666 9.5621 34.6666 10.6667H38.6666C38.6666 7.35296 35.9804 4.66667 32.6666 4.66667V8.66667ZM7.33331 4.66667C4.01961 4.66667 1.33331 7.35296 1.33331 10.6667H5.33331C5.33331 9.5621 6.22874 8.66667 7.33331 8.66667V4.66667Z" fill="#eed024" mask="url(#path-1-inside-1)"/>
<path d="M16.1832 26.6667H6.93758V24.8143L7.41373 24.5611C10.0894 23.1325 14.334 20.0302 14.334 17.7825C14.3687 17.4242 14.3207 17.0629 14.1935 16.7245C14.0664 16.386 13.8632 16.0786 13.5984 15.8241C13.3336 15.5697 13.0137 15.3744 12.6614 15.2522C12.3092 15.1301 11.9333 15.084 11.5604 15.1172C10.9189 15.1054 10.2824 15.2268 9.69427 15.473C9.10612 15.7193 8.58021 16.0846 8.15245 16.544L6.66669 15.4859C7.26436 14.8004 8.01398 14.2519 8.86071 13.8807C9.70743 13.5095 10.6298 13.3249 11.5604 13.3404C12.1768 13.306 12.7938 13.3974 13.3708 13.6085C13.9479 13.8196 14.4719 14.1456 14.9085 14.5652C15.3451 14.9847 15.6844 15.4883 15.9041 16.0428C16.1238 16.5973 16.2189 17.1901 16.1832 17.7825C16.1832 20.6005 12.7142 23.3493 10.3584 24.8898H16.1832V26.6667Z" fill="#eed024"/>
<path d="M31.5152 26.6667H29.6972V23.8097H24.243C24.0727 23.8098 23.9059 23.7599 23.7614 23.6655C23.617 23.5712 23.5007 23.4362 23.4259 23.276C23.351 23.1159 23.3206 22.9369 23.3381 22.7595C23.3556 22.5821 23.4203 22.4134 23.5248 22.2727L29.8881 13.7018C30.0043 13.5449 30.1645 13.43 30.3461 13.3731C30.5278 13.3163 30.7218 13.3204 30.9012 13.3848C31.0805 13.4493 31.2361 13.5709 31.3462 13.7325C31.4563 13.8942 31.5154 14.0879 31.5152 14.2865V21.9051H33.3333V23.8097H31.5152V26.6667ZM26.101 21.9051H29.6972V17.0616L26.101 21.9051Z" fill="#eed024"/>
<circle cx="20" cy="16.6667" r="1.66667" fill="#eed024"/>
<ellipse cx="20" cy="23.3333" rx="1.66667" ry="1.66667" fill="#eed024"/>
</svg>
