<svg class="SVGInline-svg home-link__image-svg" viewBox="0 0 88 50" fill="none" xmlns="http://www.w3.org/2000/svg"><path d="M16.3434 50H10.4115V8.91003L0.214024 13.4756V7.87695L15.4103 1.24524H16.3434V50ZM42.6917 20.074L51.8228 1.47852H58.9877L46.3574 25.5393L59.2543 50H52.0227L42.6917 31.0713L33.3273 50H26.0957L39.0592 25.5393L26.3623 1.47852H33.4939L42.6917 20.074ZM87.6687 50H60.542V45.5677L74.3719 27.2389C76.4603 24.4174 77.9044 22.1068 78.7042 20.3073C79.5262 18.4855 79.9372 16.5637 79.9372 14.542C79.9372 11.9648 79.3374 9.87646 78.1377 8.27686C76.938 6.67725 75.3606 5.87744 73.4055 5.87744C70.9394 5.87744 69.0288 6.73279 67.6736 8.44348C66.3405 10.132 65.674 12.5758 65.674 15.775H59.7755C59.7755 11.3094 60.9974 7.69922 63.4413 4.94434C65.8851 2.18945 69.2065 0.812012 73.4055 0.812012C77.2712 0.812012 80.3149 2.00061 82.5366 4.37781C84.7583 6.73279 85.8691 9.87646 85.8691 13.8088C85.8691 18.6077 83.3697 24.2841 78.3709 30.838L67.5736 44.9679H87.6687V50Z" fill="#eed024"></path></svg>