<svg class="SVGInline-svg providers-block__provider__title-svg" viewBox="0 0 180 60" fill="none" xmlns="http://www.w3.org/2000/svg">
    <g clip-path="url(#clip0_335:796)">
        <path d="M63.2616 39.1519V38.4043C64.0865 38.4043 64.7395 38.3527 65.2207 38.2496C65.7191 38.1465 66.0971 37.9575 66.3549 37.6825C66.6299 37.3904 66.8103 36.9951 66.8963 36.4967C66.9822 35.9984 67.0251 35.3539 67.0251 34.5634V16.9829L56.8171 39.1519H56.1984L46.0162 16.9829V34.5634C46.0162 35.3711 46.0592 36.0241 46.1451 36.5225C46.231 37.0209 46.4029 37.4161 46.6606 37.7083C46.9184 37.9833 47.2879 38.1723 47.7691 38.2754C48.2675 38.3613 48.9291 38.4043 49.754 38.4043V39.1519H40.6286V38.4043C41.4535 38.4043 42.1066 38.3527 42.5877 38.2496C43.0689 38.1465 43.4384 37.9575 43.6962 37.6825C43.954 37.3904 44.1172 36.9951 44.186 36.4967C44.2719 35.9984 44.3149 35.3539 44.3149 34.5634V17.3438C44.3149 16.6392 44.2547 16.0463 44.1344 15.5651C44.0313 15.0667 43.8423 14.6715 43.5673 14.3793C43.2923 14.07 42.9143 13.8466 42.4331 13.7091C41.9691 13.5716 41.3676 13.5029 40.6286 13.5029V12.8069H48.0526L57.6162 33.4034L67.0251 12.8069H74.5007V13.5029C73.6758 13.5029 73.0142 13.5544 72.5158 13.6576C72.0175 13.7607 71.6394 13.9583 71.3816 14.2504C71.1238 14.5254 70.952 14.9121 70.866 15.4104C70.7973 15.9088 70.7629 16.5533 70.7629 17.3438V34.5634C70.7629 35.3711 70.8059 36.0241 70.8918 36.5225C70.9778 37.0209 71.1496 37.4161 71.4074 37.7083C71.6652 37.9833 72.0346 38.1723 72.5158 38.2754C73.0142 38.3613 73.6758 38.4043 74.5007 38.4043V39.1519H63.2616ZM95.0617 39.1519V38.4043C95.3538 38.4043 95.6546 38.3871 95.9639 38.3527C96.2732 38.3012 96.5568 38.2153 96.8146 38.095C97.0724 37.9747 97.2872 37.8114 97.459 37.6052C97.6309 37.3818 97.7168 37.0896 97.7168 36.7287C97.7168 36.385 97.6137 35.9038 97.4075 35.2852C97.2012 34.6665 96.9692 34.0307 96.7115 33.3776C96.4537 32.7246 96.1959 32.1145 95.9381 31.5474C95.6803 30.9803 95.4999 30.5764 95.3968 30.3358H85.1888C85.12 30.4733 85.0083 30.7053 84.8536 31.0318C84.7162 31.3412 84.5529 31.7021 84.3639 32.1145C84.1748 32.5098 83.9858 32.9308 83.7968 33.3776C83.6077 33.8244 83.4273 34.2627 83.2554 34.6923C83.1008 35.1219 82.9719 35.5172 82.8688 35.8781C82.7656 36.239 82.7141 36.5225 82.7141 36.7287C82.7141 37.0724 82.8258 37.356 83.0492 37.5794C83.2726 37.7856 83.5476 37.9489 83.8741 38.0692C84.2006 38.1895 84.5357 38.2754 84.8794 38.327C85.2231 38.3613 85.5239 38.3871 85.7816 38.4043V39.1519H77.4812V38.4043C78.0998 38.3699 78.624 38.2324 79.0536 37.9919C79.4833 37.7341 79.8613 37.4076 80.1879 37.0123C80.5144 36.5998 80.7979 36.1358 81.0385 35.6203C81.2963 35.0875 81.5541 34.5204 81.8119 33.9189L91.1177 12.2398H91.7879L100.939 34.0736C101.197 34.6751 101.437 35.2336 101.661 35.7492C101.901 36.2475 102.185 36.6944 102.511 37.0896C102.838 37.4677 103.233 37.777 103.697 38.0176C104.161 38.241 104.754 38.3699 105.476 38.4043V39.1519H95.0617ZM90.3701 18.1945L85.7816 28.918H94.8555L90.3701 18.1945ZM130.084 18.9936C129.929 17.4985 129.474 16.3728 128.718 15.6167C127.962 14.8433 126.802 14.4567 125.238 14.4567H121.552V34.5634C121.552 35.3711 121.586 36.0241 121.655 36.5225C121.723 37.0209 121.887 37.4161 122.144 37.7083C122.402 37.9833 122.772 38.1723 123.253 38.2754C123.751 38.3613 124.413 38.4043 125.238 38.4043V39.1519H114.102V38.4043C114.927 38.4043 115.58 38.3527 116.061 38.2496C116.542 38.1465 116.912 37.9575 117.169 37.6825C117.427 37.3904 117.59 36.9951 117.659 36.4967C117.745 35.9984 117.788 35.3539 117.788 34.5634V14.4567H114.617C113.792 14.4567 113.071 14.534 112.452 14.6887C111.833 14.8261 111.309 15.0667 110.88 15.4104C110.467 15.7542 110.141 16.2182 109.9 16.8025C109.677 17.3867 109.53 18.1171 109.462 18.9936H108.56L108.817 12.8069H130.677L130.935 18.9936H130.084ZM134.663 39.1519V38.4043C135.505 38.4043 136.175 38.3527 136.673 38.2496C137.172 38.1293 137.55 37.9317 137.808 37.6567C138.065 37.3646 138.229 36.9693 138.297 36.471C138.366 35.9554 138.4 35.3024 138.4 34.5118V17.4469C138.4 16.6392 138.366 15.9862 138.297 15.4878C138.229 14.9722 138.065 14.5684 137.808 14.2762C137.55 13.9841 137.172 13.7864 136.673 13.6833C136.175 13.563 135.505 13.5029 134.663 13.5029V12.8069H145.953V13.5029C145.129 13.5029 144.467 13.563 143.969 13.6833C143.47 13.7864 143.083 13.9841 142.808 14.2762C142.551 14.5684 142.379 14.9722 142.293 15.4878C142.207 15.9862 142.164 16.6392 142.164 17.4469V34.5118C142.164 35.3024 142.198 35.9554 142.267 36.471C142.353 36.9693 142.525 37.3646 142.783 37.6567C143.04 37.9317 143.419 38.1293 143.917 38.2496C144.415 38.3527 145.094 38.4043 145.953 38.4043V39.1519H134.663ZM173.861 32.9652C172.675 35.1133 171.18 36.7889 169.376 37.9919C167.588 39.1948 165.457 39.7963 162.983 39.7963C161.024 39.7963 159.254 39.4526 157.673 38.7652C156.092 38.0778 154.742 37.1326 153.625 35.9296C152.508 34.7267 151.649 33.3089 151.048 31.6763C150.446 30.0437 150.145 28.2736 150.145 26.366C150.145 24.4069 150.463 22.5767 151.099 20.8754C151.752 19.1568 152.663 17.6617 153.832 16.39C155.017 15.1011 156.427 14.0872 158.059 13.3482C159.709 12.6093 161.539 12.2398 163.55 12.2398C164.22 12.2398 164.839 12.2913 165.406 12.3944C165.99 12.4804 166.549 12.6007 167.081 12.7553C167.631 12.91 168.164 13.099 168.68 13.3224C169.212 13.5287 169.78 13.7607 170.381 14.0184C170.639 14.0184 170.862 13.9583 171.051 13.838C171.24 13.7177 171.395 13.5716 171.515 13.3998C171.636 13.2279 171.73 13.0389 171.799 12.8327C171.885 12.6264 171.953 12.4288 172.005 12.2398H172.701L173.268 21.1589H172.701C172.375 20.0591 171.953 19.0537 171.438 18.1429C170.94 17.2149 170.329 16.4158 169.608 15.7456C168.903 15.0753 168.07 14.5512 167.107 14.1731C166.162 13.795 165.088 13.606 163.885 13.606C162.682 13.606 161.617 13.7864 160.689 14.1473C159.778 14.491 158.97 14.9722 158.265 15.5909C157.578 16.2096 156.994 16.9313 156.513 17.7562C156.049 18.5811 155.67 19.4748 155.378 20.4371C155.103 21.3823 154.897 22.3705 154.76 23.4016C154.639 24.4155 154.579 25.4208 154.579 26.4176C154.579 27.9986 154.768 29.4938 155.146 30.9029C155.524 32.2949 156.109 33.5237 156.899 34.5892C157.707 35.6547 158.729 36.4967 159.967 37.1154C161.221 37.7341 162.716 38.0434 164.452 38.0434C165.552 38.0434 166.514 37.9145 167.339 37.6567C168.181 37.399 168.937 37.0381 169.608 36.5741C170.295 36.0929 170.922 35.5172 171.489 34.847C172.074 34.1595 172.667 33.3948 173.268 32.5527L173.861 32.9652Z" fill="white"></path>
        <path d="M24.2324 39.6777V38.6982C24.6152 38.6982 25.0093 38.6757 25.4146 38.6306C25.8199 38.5631 26.1915 38.4505 26.5293 38.2928C26.8671 38.1352 27.1485 37.9213 27.3737 37.6511C27.5989 37.3583 27.7115 36.9755 27.7115 36.5026C27.7115 36.0522 27.5764 35.4217 27.3062 34.6111C27.0359 33.8004 26.7319 32.9672 26.3942 32.1115C26.0564 31.2558 25.7186 30.4564 25.3808 29.7133C25.043 28.9701 24.8066 28.441 24.6715 28.1257H11.2954C11.2054 28.3058 11.059 28.6098 10.8563 29.0377C10.6762 29.443 10.4623 29.9159 10.2146 30.4564C9.96685 30.9743 9.71915 31.526 9.47144 32.1115C9.22374 32.697 8.98729 33.2712 8.76211 33.8342C8.55944 34.3971 8.39055 34.9151 8.25544 35.3879C8.12033 35.8608 8.05277 36.2324 8.05277 36.5026C8.05277 36.953 8.19914 37.3245 8.49188 37.6173C8.78463 37.8875 9.14492 38.1014 9.57278 38.2591C10.0006 38.4167 10.4397 38.5293 10.8901 38.5968C11.3405 38.6419 11.7346 38.6757 12.0723 38.6982V39.6777H1.19586V38.6982C2.00653 38.6531 2.69335 38.473 3.25631 38.1577C3.81928 37.82 4.31469 37.3921 4.74254 36.8742C5.17039 36.3337 5.54195 35.7257 5.85721 35.0502C6.19499 34.3521 6.53277 33.609 6.87055 32.8208L19.0644 4.41363H19.9426L31.9337 33.0235C32.2715 33.8116 32.5868 34.5435 32.8795 35.2191C33.1948 35.8721 33.5663 36.4576 33.9942 36.9755C34.422 37.4709 34.94 37.8762 35.548 38.1915C36.156 38.4842 36.9329 38.6531 37.8786 38.6982V39.6777H24.2324ZM18.0848 12.2163L12.0723 26.2679H23.9622L18.0848 12.2163Z" fill="white"></path>
        <rect x="0.791016" y="40.9077" width="171.122" height="1.82045" fill="white"></rect>
        <path d="M1.28254 53.6382C1.24613 53.6382 1.22792 53.62 1.22792 53.5836L1.23885 46.0797C1.23885 46.0505 1.25341 46.036 1.28254 46.036H2.50588C2.53501 46.036 2.54957 46.0505 2.54957 46.0797L2.56049 53.5836C2.56049 53.62 2.54593 53.6382 2.5168 53.6382H1.28254ZM17.7281 53.6382C17.6698 53.6382 17.6407 53.6127 17.6407 53.5617L17.6298 46.1234C17.6298 46.0651 17.6589 46.036 17.7171 46.036H18.7002L20.5461 50.3395L20.4915 46.1234C20.4915 46.0651 20.5243 46.036 20.5898 46.036H21.6712C21.7148 46.036 21.7367 46.0651 21.7367 46.1234L21.7476 53.5726C21.7476 53.6163 21.7294 53.6382 21.693 53.6382H20.7318L18.8422 49.6186L18.9186 53.5508C18.9186 53.6091 18.8859 53.6382 18.8203 53.6382H17.7281ZM36.8595 53.6382C36.8231 53.6382 36.8049 53.62 36.8049 53.5836L36.8268 46.0797C36.8268 46.0505 36.8413 46.036 36.8705 46.036L38.913 46.0251C39.3135 46.0178 39.6776 46.1124 40.0053 46.3091C40.3402 46.5057 40.606 46.7714 40.8026 47.1064C40.9992 47.4341 41.0975 47.7982 41.0975 48.1987V51.3335C41.0975 51.7558 40.9956 52.1418 40.7917 52.4913C40.5878 52.8335 40.3148 53.1066 39.9725 53.3105C39.6303 53.5144 39.2443 53.62 38.8147 53.6273L36.8595 53.6382ZM38.1375 52.2947H38.8147C39.0841 52.2947 39.3099 52.2 39.4919 52.0107C39.6812 51.8214 39.7759 51.5956 39.7759 51.3335V48.1878C39.7759 47.9547 39.6885 47.7545 39.5138 47.587C39.3463 47.4122 39.146 47.3285 38.913 47.3358L38.1484 47.3467L38.1375 52.2947ZM58.0432 53.7474C57.6573 53.7474 57.3005 53.6491 56.9728 53.4525C56.6451 53.2486 56.383 52.9792 56.1863 52.6442C55.997 52.3093 55.9024 51.9415 55.9024 51.541L55.9242 46.0797C55.9242 46.0505 55.9388 46.036 55.9679 46.036H57.1912C57.2204 46.036 57.2349 46.0505 57.2349 46.0797V51.541C57.2349 51.7886 57.3114 51.9998 57.4643 52.1745C57.6245 52.342 57.8175 52.4258 58.0432 52.4258C58.2762 52.4258 58.4692 52.342 58.6221 52.1745C58.7823 51.9998 58.8624 51.7886 58.8624 51.541V46.0797C58.8624 46.0505 58.877 46.036 58.9061 46.036H60.1294C60.1586 46.036 60.1731 46.0505 60.1731 46.0797L60.195 51.541C60.195 51.9488 60.0967 52.3202 59.9001 52.6551C59.7107 52.9901 59.4522 53.2559 59.1246 53.4525C58.8042 53.6491 58.4437 53.7474 58.0432 53.7474ZM77.0228 53.7474C76.6296 53.7474 76.2691 53.6491 75.9414 53.4525C75.621 53.2486 75.3625 52.9828 75.1659 52.6551C74.9766 52.3202 74.8819 51.9524 74.8819 51.5519V51.0495C74.8819 51.0131 74.9001 50.9949 74.9366 50.9949H76.1599C76.189 50.9949 76.2036 51.0131 76.2036 51.0495V51.5519C76.2036 51.7922 76.2837 51.9998 76.4439 52.1745C76.6041 52.342 76.7971 52.4258 77.0228 52.4258C77.2485 52.4258 77.4415 52.3384 77.6017 52.1636C77.7619 51.9889 77.842 51.785 77.842 51.5519C77.842 51.2825 77.6672 51.0495 77.3177 50.8529C77.2012 50.7874 77.0192 50.6854 76.7716 50.5471C76.524 50.4087 76.291 50.2776 76.0725 50.1538C75.672 49.9208 75.3735 49.6296 75.1769 49.28C74.9875 48.9232 74.8929 48.5227 74.8929 48.0785C74.8929 47.6707 74.9912 47.3067 75.1878 46.9863C75.3844 46.6586 75.6429 46.4001 75.9633 46.2107C76.291 46.0214 76.6441 45.9268 77.0228 45.9268C77.4087 45.9268 77.7619 46.0251 78.0823 46.2217C78.41 46.411 78.6685 46.6695 78.8578 46.9972C79.0544 47.3176 79.1527 47.678 79.1527 48.0785V48.9742C79.1527 49.0033 79.1382 49.0179 79.109 49.0179H77.8857C77.8566 49.0179 77.842 49.0033 77.842 48.9742L77.8311 48.0785C77.8311 47.8237 77.751 47.6161 77.5908 47.4559C77.4306 47.2957 77.2412 47.2156 77.0228 47.2156C76.7971 47.2156 76.6041 47.303 76.4439 47.4778C76.2837 47.6453 76.2036 47.8455 76.2036 48.0785C76.2036 48.3188 76.2546 48.5191 76.3565 48.6793C76.4585 48.8395 76.6441 48.9924 76.9136 49.138C76.95 49.1599 77.0192 49.1999 77.1211 49.2582C77.2303 49.3092 77.3468 49.371 77.4706 49.4439C77.5944 49.5094 77.7036 49.5677 77.7983 49.6186C77.9003 49.6696 77.9621 49.7024 77.984 49.7169C78.3481 49.9208 78.6357 50.172 78.8469 50.4706C79.0581 50.7619 79.1636 51.1223 79.1636 51.5519C79.1636 51.967 79.0653 52.342 78.8687 52.677C78.6794 53.0047 78.4209 53.2668 78.0932 53.4634C77.7728 53.6527 77.416 53.7474 77.0228 53.7474ZM95.0707 53.6382C95.0416 53.6382 95.027 53.62 95.027 53.5836V47.3576H93.6071C93.5707 47.3576 93.5524 47.3394 93.5524 47.303L93.5634 46.0797C93.5634 46.0505 93.5779 46.036 93.6071 46.036H97.7577C97.7941 46.036 97.8123 46.0505 97.8123 46.0797V47.303C97.8123 47.3394 97.7977 47.3576 97.7686 47.3576H96.3377L96.3487 53.5836C96.3487 53.62 96.3341 53.6382 96.305 53.6382H95.0707ZM112.504 53.6382C112.475 53.6382 112.46 53.62 112.46 53.5836L112.482 46.0797C112.482 46.0505 112.497 46.036 112.526 46.036H114.732C115.125 46.036 115.486 46.1343 115.814 46.3309C116.149 46.5202 116.414 46.7787 116.611 47.1064C116.808 47.4268 116.906 47.7909 116.906 48.1987C116.906 48.4681 116.866 48.712 116.786 48.9305C116.706 49.1417 116.611 49.3237 116.502 49.4766C116.392 49.6223 116.294 49.7315 116.207 49.8043C116.6 50.2412 116.797 50.7546 116.797 51.3444L116.808 53.5836C116.808 53.62 116.789 53.6382 116.753 53.6382H115.519C115.489 53.6382 115.475 53.6273 115.475 53.6054V51.3444C115.475 51.0823 115.38 50.8565 115.191 50.6672C115.009 50.4706 114.783 50.3723 114.514 50.3723H113.793L113.782 53.5836C113.782 53.62 113.767 53.6382 113.738 53.6382H112.504ZM113.793 49.0616H114.732C114.958 49.0616 115.158 48.9778 115.333 48.8103C115.508 48.6429 115.595 48.439 115.595 48.1987C115.595 47.9657 115.508 47.7654 115.333 47.5979C115.165 47.4304 114.965 47.3467 114.732 47.3467H113.793V49.0616ZM131.893 53.6382C131.856 53.6382 131.838 53.62 131.838 53.5836L131.849 46.0797C131.849 46.0505 131.864 46.036 131.893 46.036H133.116C133.145 46.036 133.16 46.0505 133.16 46.0797L133.171 53.5836C133.171 53.62 133.156 53.6382 133.127 53.6382H131.893ZM148.284 53.6382C148.255 53.6382 148.24 53.62 148.24 53.5836L148.251 46.0797C148.251 46.0505 148.265 46.036 148.295 46.036H151.801C151.83 46.036 151.844 46.0542 151.844 46.0906V47.3139C151.844 47.3431 151.83 47.3576 151.801 47.3576H149.562V49.0616H151.801C151.83 49.0616 151.844 49.0761 151.844 49.1053L151.855 50.3395C151.855 50.3687 151.841 50.3832 151.812 50.3832H149.562V52.2947H151.812C151.841 52.2947 151.855 52.3129 151.855 52.3493V53.5945C151.855 53.6236 151.841 53.6382 151.812 53.6382H148.284ZM168.728 53.7474C168.335 53.7474 167.974 53.6491 167.647 53.4525C167.326 53.2486 167.068 52.9828 166.871 52.6551C166.682 52.3202 166.587 51.9524 166.587 51.5519V51.0495C166.587 51.0131 166.605 50.9949 166.642 50.9949H167.865C167.894 50.9949 167.909 51.0131 167.909 51.0495V51.5519C167.909 51.7922 167.989 51.9998 168.149 52.1745C168.309 52.342 168.502 52.4258 168.728 52.4258C168.954 52.4258 169.147 52.3384 169.307 52.1636C169.467 51.9889 169.547 51.785 169.547 51.5519C169.547 51.2825 169.372 51.0495 169.023 50.8529C168.906 50.7874 168.724 50.6854 168.477 50.5471C168.229 50.4087 167.996 50.2776 167.778 50.1538C167.377 49.9208 167.079 49.6296 166.882 49.28C166.693 48.9232 166.598 48.5227 166.598 48.0785C166.598 47.6707 166.696 47.3067 166.893 46.9863C167.09 46.6586 167.348 46.4001 167.668 46.2107C167.996 46.0214 168.349 45.9268 168.728 45.9268C169.114 45.9268 169.467 46.0251 169.787 46.2217C170.115 46.411 170.374 46.6695 170.563 46.9972C170.76 47.3176 170.858 47.678 170.858 48.0785V48.9742C170.858 49.0033 170.843 49.0179 170.814 49.0179H169.591C169.562 49.0179 169.547 49.0033 169.547 48.9742L169.536 48.0785C169.536 47.8237 169.456 47.6161 169.296 47.4559C169.136 47.2957 168.946 47.2156 168.728 47.2156C168.502 47.2156 168.309 47.303 168.149 47.4778C167.989 47.6453 167.909 47.8455 167.909 48.0785C167.909 48.3188 167.96 48.5191 168.062 48.6793C168.164 48.8395 168.349 48.9924 168.619 49.138C168.655 49.1599 168.724 49.1999 168.826 49.2582C168.936 49.3092 169.052 49.371 169.176 49.4439C169.3 49.5094 169.409 49.5677 169.503 49.6186C169.605 49.6696 169.667 49.7024 169.689 49.7169C170.053 49.9208 170.341 50.172 170.552 50.4706C170.763 50.7619 170.869 51.1223 170.869 51.5519C170.869 51.967 170.771 52.342 170.574 52.677C170.385 53.0047 170.126 53.2668 169.798 53.4634C169.478 53.6527 169.121 53.7474 168.728 53.7474Z" fill="white"></path>
    </g>
    <defs>
        <clipPath id="clip0_335:796">
        <rect width="178.404" height="67.3223" fill="white" transform="translate(0.790039 -4.05469)"></rect>
        </clipPath>
    </defs>
</svg>