<svg xmlns="http://www.w3.org/2000/svg" viewBox="0 0 71.16 74.83"><defs><style>.cls-1{fill:#000;}</style></defs><g id="Layer_2" data-name="Layer 2"><g id="Layer_1-2" data-name="Layer 1"><path class="cls-1" d="M10.36,73.54V17.86A5.18,5.18,0,0,0,0,17.86V73.54a1.3,1.3,0,0,0,1.3,1.29H9.06A1.3,1.3,0,0,0,10.36,73.54Z"/><path class="cls-1" d="M13,2.32h7.77a2.59,2.59,0,0,1,2.59,2.59v5.18a2.59,2.59,0,0,1-2.59,2.59H13a2.59,2.59,0,0,1-2.59-2.59V4.91A2.59,2.59,0,0,1,13,2.32Z"/><path class="cls-1" d="M2.59,7.5a2.6,2.6,0,0,0,2.59,2.59H9.06V4.91H5.18A2.6,2.6,0,0,0,2.59,7.5Z"/><path class="cls-1" d="M28.49,4.91H24.6v5.18h3.89a2.59,2.59,0,0,0,0-5.18Z"/><path class="cls-1" d="M44.77,1.46,52.11.05a2.59,2.59,0,0,1,3,2.05l1,5.09a2.59,2.59,0,0,1-2,3l-7.34,1.42a2.59,2.59,0,0,1-3-2.06l-1-5.08A2.58,2.58,0,0,1,44.77,1.46Z"/><path class="cls-1" d="M35.84,6.6a2.53,2.53,0,0,0-.41,1.94,2.6,2.6,0,0,0,3,2.05l3.81-.73-1-5.09-3.82.74A2.49,2.49,0,0,0,35.84,6.6Z"/><path class="cls-1" d="M61.35,6.18a2.59,2.59,0,0,0-1-5.09l-3.81.74,1,5.08Z"/><path class="cls-1" d="M45.14,26.78l-.91.92a1.29,1.29,0,1,0,1.83,1.83l.92-.92a1.28,1.28,0,0,0,.34-1.25,1.26,1.26,0,0,0-.92-.92A1.31,1.31,0,0,0,45.14,26.78Z"/><path class="cls-1" d="M37.82,34.11,36.9,35a1.31,1.31,0,0,0-.34,1.26,1.26,1.26,0,0,0,.92.92,1.28,1.28,0,0,0,1.25-.34l.92-.92A1.29,1.29,0,0,0,40,34.68a1.26,1.26,0,0,0-.92-.92A1.28,1.28,0,0,0,37.82,34.11Z"/><path class="cls-1" d="M41.48,33.57a1.28,1.28,0,0,0,.92-.38l.91-.91A1.29,1.29,0,0,0,43.66,31a1.26,1.26,0,0,0-.92-.92,1.29,1.29,0,0,0-1.26.35l-.91.91a1.3,1.3,0,0,0,.91,2.21Z"/><path class="cls-1" d="M41.48,37.77l-.91.92a1.26,1.26,0,0,0-.35,1.25,1.29,1.29,0,0,0,.92.93,1.31,1.31,0,0,0,1.26-.35l.91-.92a1.29,1.29,0,0,0-1.83-1.83Z"/><path class="cls-1" d="M45.14,34.11l-.91.92a1.26,1.26,0,0,0-.35,1.25,1.29,1.29,0,0,0,.92.93,1.31,1.31,0,0,0,1.26-.35l.92-.92a1.29,1.29,0,0,0-.58-2.18A1.29,1.29,0,0,0,45.14,34.11Z"/><path class="cls-1" d="M48.81,30.45l-.92.91a1.29,1.29,0,1,0,1.83,1.83l.92-.91a1.29,1.29,0,0,0-1.83-1.83Z"/><path class="cls-1" d="M67.8,16.5a5.18,5.18,0,0,0-6.67,3L56.77,31.12a12.95,12.95,0,0,0-21.9-6.88,13.53,13.53,0,0,0-1.2,1.41V17.86a5.18,5.18,0,0,0-10.36,0V73.54a1.29,1.29,0,0,0,1.29,1.29h7.77a1.3,1.3,0,0,0,1.3-1.29V41.14a13.53,13.53,0,0,0,1.2,1.41,12.94,12.94,0,0,0,17.24,1L41,73.08a1.3,1.3,0,0,0,1.21,1.75H50.5A1.29,1.29,0,0,0,51.71,74L70.82,23.18a5.26,5.26,0,0,0,.34-1.84A5.18,5.18,0,0,0,67.8,16.5ZM51.35,40.72A10.34,10.34,0,0,1,39.9,42.89a1.28,1.28,0,0,0-.42-1.6,1.3,1.3,0,0,0-1.66.14l-.14.14a9.33,9.33,0,0,1-1.83-1.83L36,39.6a1.29,1.29,0,0,0-1.46-2.08A10.35,10.35,0,0,1,48.07,23.86l-.18.18a1.29,1.29,0,1,0,1.83,1.83l.65-.65a9.33,9.33,0,0,1,1.83,1.83l-.65.65A1.31,1.31,0,0,0,51.2,29a1.3,1.3,0,0,0,2.19.57l.18-.18a10.37,10.37,0,0,1-2.22,11.37Z"/></g></g></svg>