<svg xmlns="http://www.w3.org/2000/svg" viewBox="0 0 73.3 73.56"><defs><style>.cls-1{fill:#000;}</style></defs><g id="Layer_2" data-name="Layer 2"><g id="Layer_1-2" data-name="Layer 1"><path class="cls-1" d="M.92,59.16a3.12,3.12,0,0,0,0,4.43L5.34,68a3.14,3.14,0,0,0,4.43,0L20.84,57,12,48.11Z"/><path class="cls-1" d="M14.2,45.9l8.85,8.85c3.74-3.74,10.29-.46,18.06.35L13.84,27.83C14.66,35.61,17.94,42.16,14.2,45.9Z"/><path class="cls-1" d="M60.67,48.1A28,28,0,0,0,61,8.53h0A28.14,28.14,0,0,0,21.15,8l-.31.31a22.25,22.25,0,0,0-7.1,15l31.9,31.89A22.22,22.22,0,0,0,60.67,48.1Z"/><circle class="cls-1" cx="63.91" cy="64.17" r="9.39"/></g></g></svg>