<svg id="Capa_1" style="fill: #fff;" enable-background="new 0 0 607.848 607.848" height="512" viewBox="0 0 607.848 607.848" width="512" xmlns="http://www.w3.org/2000/svg"><g><g id="Page-1_4_"><g id="_x30_05---Volleyball" transform="translate(-1)"><path id="Shape_30_" d="m308.502 422.985c63.341-1.856 192.974-28.523 289.7-198.618 7.048 25.924 10.621 52.669 10.626 79.534 0 8.477-.445 16.855-1.085 25.169-93.774 169.379-220.65 192.344-277.848 193.386-11.457-32.076-18.649-65.52-21.393-99.471z"/><path id="Shape_29_" d="m114.475 540.506c-79.642-156.289-44.434-268.243-13.024-324.594 34.04 6.063 67.118 16.649 98.354 31.475-31.366 53.67-76.875 174.74 6.881 344.054-33.469-11.479-64.675-28.716-92.211-50.935z"/><path id="Shape_28_" d="m23.621 189.116c14.045-34.251 34.219-65.654 59.531-92.667 194.276 5.09 275.797 104.833 305.079 156.658-25.279 15.862-52.283 28.792-80.489 38.541-23.671-21.512-130.36-109.544-284.121-102.532z"/><path id="Shape_27_" d="m194.226 20.974c176.075 8.683 255.577 95.293 288.636 150.787-22.276 26.453-47.983 49.813-76.441 69.462-30.943-54.061-113.222-153.858-301.822-165.558 26.481-23.286 56.808-41.791 89.627-54.691z"/><path id="Shape_26_" d="m588.965 195.986c-92.753 177.28-220.813 203.882-281.701 205.347-1.085-29.787 1.22-59.601 6.87-88.868 30.444-9.768 159.947-58.109 230.787-194.667 18.471 23.739 33.314 50.089 44.044 78.188z"/><path id="Shape_25_" d="m529.706 99.586c-9.219 18.921-20.116 36.977-32.56 53.952-33.646-52.921-104.877-126.779-246.146-148.638 103.025-18.751 208.425 17.057 278.706 94.686z"/><path id="Shape_24_" d="m15.47 211.408c21.036-1.478 42.161-1.068 63.124 1.226-28.914 55.515-57.23 153.826-6.328 286.531-67.144-79.775-88.594-188.452-56.796-287.757z"/><path id="Shape_23_" d="m235.469 599.69c-92.341-171.007-46.453-291.382-16.15-342.523 26.372 13.969 51.073 30.885 73.63 50.425-6.794 31.258-29.662 167.664 53.269 297.384-36.906 5.143-74.448 3.369-110.705-5.231z"/><path id="Shape_22_" d="m369.552 600.819c-12.131-17.96-22.576-37.001-31.204-56.883 58.402-2.768 168.228-27.134 258.778-156.756-30.885 107.591-118.248 189.604-227.574 213.639z"/></g></g></g></svg>