<svg width="25" height="24" viewBox="0 0 25 24" fill="none" xmlns="http://www.w3.org/2000/svg">
<path d="M16.6945 7.80545C15.6211 6.73203 14.1381 6.06819 12.5 6.06819C10.8619 6.06819 9.37866 6.73203 8.30545 7.80545C7.23225 8.87866 6.56819 10.3619 6.56819 12C6.56819 13.6381 7.23225 15.1211 8.30545 16.1945C9.37866 17.268 10.8619 17.9318 12.5 17.9318C14.1381 17.9318 15.6211 17.268 16.6945 16.1945C17.768 15.1211 18.4318 13.6381 18.4318 12C18.4318 10.3619 17.768 8.87866 16.6945 7.80545ZM13.0087 5.06918C13.906 5.13405 14.756 5.36921 15.5265 5.74278L16.5616 3.95042C15.4836 3.40568 14.2815 3.07072 13.0087 3V5.06918ZM16.4051 6.25107C16.7674 6.49773 17.1052 6.77737 17.4139 7.08608C17.7226 7.39478 18.0025 7.73234 18.2489 8.09485L20.0413 7.05983C19.7016 6.54242 19.3102 6.0619 18.8742 5.62585C18.4381 5.1898 17.9576 4.79844 17.44 4.45871L16.4051 6.25107ZM18.7574 8.97324C19.1306 9.74382 19.366 10.594 19.4308 11.4913H21.5C21.4291 10.2187 21.0945 9.01641 20.5496 7.93865L18.7574 8.97324ZM19.4308 12.5087C19.366 13.406 19.1306 14.256 18.7572 15.0265L20.5496 16.0613C21.0945 14.9836 21.4293 13.7815 21.5 12.5087H19.4308ZM18.2489 15.9051C18.0025 16.2674 17.7226 16.6052 17.4139 16.9139C17.1052 17.2226 16.7674 17.5023 16.4051 17.7489L17.44 19.5413C17.9576 19.2016 18.4381 18.8102 18.8742 18.3742C19.3102 17.9381 19.7018 17.4576 20.0413 16.94L18.2489 15.9051ZM15.5265 18.2572C14.756 18.6306 13.906 18.866 13.0087 18.9308V21C14.2815 20.9291 15.4836 20.5945 16.5616 20.0496L15.5265 18.2572ZM11.9913 18.9308C11.094 18.866 10.2438 18.6308 9.47324 18.2574L8.43865 20.0496C9.51641 20.5945 10.7187 20.9291 11.9913 21V18.9308ZM8.59485 17.7489C8.23256 17.5025 7.89478 17.2226 7.58608 16.9139C7.27737 16.605 6.99773 16.2674 6.75129 15.9051L4.95871 16.94C5.29844 17.4576 5.6898 17.9381 6.12585 18.3742C6.5619 18.8102 7.04242 19.2016 7.56004 19.5413L8.59485 17.7489ZM6.24278 15.0265C5.86943 14.256 5.63405 13.406 5.56918 12.5087H3.5C3.57072 13.7815 3.90568 14.9836 4.45042 16.0613L6.24278 15.0265ZM5.56918 11.4913C5.63405 10.594 5.86921 9.74382 6.24278 8.97324L4.45042 7.93865C3.90568 9.01641 3.57072 10.2187 3.5 11.4913H5.56918ZM6.75107 8.09485C6.99752 7.73234 7.27737 7.39478 7.58608 7.08608C7.89478 6.77737 8.23256 6.49752 8.59485 6.25107L7.56004 4.45871C7.04242 4.79844 6.5619 5.1898 6.12585 5.62585C5.6898 6.0619 5.29844 6.54242 4.95871 7.05983L6.75107 8.09485ZM9.47324 5.74278C10.2438 5.36943 11.094 5.13405 11.9913 5.06918V3C10.7187 3.07072 9.51641 3.40568 8.43865 3.95042L9.47324 5.74278ZM9.67413 13.3704L10.815 13.1867C10.9083 13.8598 11.2634 14.3473 11.926 14.5252V12.3311C11.447 12.1952 11.0938 12.0733 10.8651 11.9651C10.2416 11.6637 9.87068 11.106 9.87068 10.409C9.87068 10.105 9.94075 9.82517 10.0785 9.56744C10.3705 9.02878 10.8044 8.76086 11.3767 8.59034C11.5531 8.53828 11.7359 8.50075 11.926 8.4784V7.60782H13.0745V8.50292C13.3263 8.54131 13.5598 8.60162 13.7743 8.68428C14.5989 8.99646 14.9247 9.51711 15.0638 10.3673L13.9359 10.5248C13.863 10.0102 13.5723 9.62971 13.0745 9.47828V11.4132C14.1908 11.729 15.3261 11.995 15.3261 13.401C15.3261 14.2542 14.7805 14.9341 14.019 15.2697C13.7296 15.3964 13.4146 15.4795 13.0745 15.5194V16.3922H11.926V15.5086C10.6419 15.3474 9.90561 14.6612 9.67413 13.3704ZM13.0745 14.5655C13.3626 14.5172 13.5912 14.4221 13.7611 14.2796C14.0168 14.0655 14.1459 13.8119 14.1459 13.5212C14.1459 12.9153 13.5448 12.7727 13.0745 12.638V14.5655ZM11.926 9.43359C11.4817 9.50366 10.9853 9.75944 10.9853 10.2734C10.9853 10.637 11.2535 10.8576 11.5667 10.9836C11.627 11.0062 11.7461 11.0437 11.926 11.0958V9.43359Z" fill="url(#paint0_linear)"/>
<defs>
<linearGradient id="paint0_linear" x1="3.5" y1="12" x2="21.5" y2="13.44" gradientUnits="userSpaceOnUse">
<stop stop-color="#f2b705"/>
<stop offset="1" stop-color="#f2b705"/>
</linearGradient>
</defs>
</svg>
