<svg class="SVGInline-svg home-link__image-svg" viewBox="0 0 73 73" fill="none" xmlns="http://www.w3.org/2000/svg"><path d="M46.8828 0H26.1171C17.4857 0 10.3217 6.16608 8.93945 14.2578H64.0604C62.6781 6.16608 55.5142 0 46.8828 0ZM23.6679 9.98047C22.4868 9.98047 21.5292 9.02291 21.5292 7.8418C21.5292 6.66068 22.4868 5.70312 23.6679 5.70312C24.849 5.70312 25.8066 6.66068 25.8066 7.8418C25.8066 9.02291 24.849 9.98047 23.6679 9.98047ZM32.2226 9.98047C31.0415 9.98047 30.0839 9.02291 30.0839 7.8418C30.0839 6.66068 31.0415 5.70312 32.2226 5.70312C33.4037 5.70312 34.3613 6.66068 34.3613 7.8418C34.3613 9.02291 33.4037 9.98047 32.2226 9.98047ZM40.7773 9.98047C39.5962 9.98047 38.6386 9.02291 38.6386 7.8418C38.6386 6.66068 39.5962 5.70312 40.7773 5.70312C41.9584 5.70312 42.916 6.66068 42.916 7.8418C42.916 9.02291 41.9584 9.98047 40.7773 9.98047ZM49.332 9.98047C48.1509 9.98047 47.1933 9.02291 47.1933 7.8418C47.1933 6.66068 48.1509 5.70312 49.332 5.70312C50.5131 5.70312 51.4706 6.66068 51.4706 7.8418C51.4706 9.02291 50.5131 9.98047 49.332 9.98047Z" fill="#eed024"></path><path d="M67.2969 18.5352H5.70312C2.55343 18.5352 0 21.0886 0 24.2383V67.2969C0 70.4466 2.55343 73 5.70312 73H67.2969C70.4466 73 73 70.4466 73 67.2969V24.2383C73 21.0886 70.4466 18.5352 67.2969 18.5352ZM62.1641 66.0137H10.8359C9.65482 66.0137 8.69727 65.0561 8.69727 63.875C8.69727 62.6939 9.65482 61.7363 10.8359 61.7363H62.1641C63.3452 61.7363 64.3027 62.6939 64.3027 63.875C64.3027 65.0561 63.3452 66.0137 62.1641 66.0137ZM64.3027 53.6165C64.3027 54.7976 63.3452 55.7552 62.1641 55.7552H45.0547H27.9453H10.8359C9.65482 55.7552 8.69727 54.7976 8.69727 53.6165V27.9524C8.69727 26.7713 9.65482 25.8138 10.8359 25.8138H27.9453H45.0547H62.1641C63.3452 25.8138 64.3027 26.7713 64.3027 27.9524V53.6165Z" fill="#eed024"></path><path d="M25.8066 30.0908H12.9746V51.4775H25.8066V30.0908ZM22.5723 38.5939L19.5078 44.5229C19.4099 44.7123 19.2144 44.8314 19.0012 44.8314H17.3044C17.104 44.8314 16.9182 44.7262 16.8151 44.5541C16.712 44.3821 16.707 44.1687 16.8015 43.9919L19.3765 39.1819H16.7153C16.4003 39.1819 16.145 38.9265 16.145 38.6116V37.3739C16.145 37.0589 16.4003 36.8035 16.7153 36.8035H21.6262C21.8492 36.8035 22.0517 36.9336 22.1447 37.1362L22.5839 38.0944C22.6572 38.254 22.6528 38.4382 22.5723 38.5939Z" fill="#eed024"></path><path d="M42.916 30.0908H30.084V51.4775H42.916V30.0908ZM39.6816 38.5939L36.6172 44.5229C36.5192 44.7123 36.3238 44.8314 36.1106 44.8314H34.4138C34.2133 44.8314 34.0276 44.7262 33.9245 44.5541C33.8214 44.3821 33.8164 44.1687 33.9109 43.9919L36.4859 39.1819H33.8247C33.5097 39.1819 33.2544 38.9265 33.2544 38.6116V37.3739C33.2544 37.0589 33.5097 36.8035 33.8247 36.8035H38.7356C38.9586 36.8035 39.1611 36.9336 39.254 37.1362L39.6933 38.0944C39.7666 38.254 39.7622 38.4382 39.6816 38.5939Z" fill="#eed024"></path><path d="M47.1934 51.4775H60.0254V30.0908H47.1934V51.4775ZM50.364 37.3739C50.364 37.0589 50.6194 36.8035 50.9343 36.8035H55.8453C56.0683 36.8035 56.2707 36.9336 56.3637 37.1362L56.803 38.0944C56.8761 38.2538 56.8717 38.4381 56.7912 38.5939L53.7267 44.5229C53.6288 44.7123 53.4333 44.8314 53.2201 44.8314H51.5233C51.3228 44.8314 51.1371 44.7262 51.034 44.5541C50.9309 44.3821 50.9259 44.1687 51.0204 43.9919L53.5954 39.1819H50.9342C50.6192 39.1819 50.3639 38.9265 50.3639 38.6116V37.3739H50.364Z" fill="#eed024"></path></svg>