<svg width="24" height="24" viewBox="0 0 24 24" fill="none" xmlns="http://www.w3.org/2000/svg">
<path d="M17.5 8V8.5H18H20C20.1326 8.5 20.2598 8.55268 20.3536 8.64645C20.4473 8.74021 20.5 8.86739 20.5 9V21C20.5 21.1326 20.4473 21.2598 20.3536 21.3536C20.2598 21.4473 20.1326 21.5 20 21.5H4C3.86739 21.5 3.74021 21.4473 3.64645 21.3536C3.55268 21.2598 3.5 21.1326 3.5 21V9C3.5 8.86739 3.55268 8.74021 3.64645 8.64645C3.74021 8.55268 3.86739 8.5 4 8.5H6H6.5V8V7C6.5 5.54131 7.07946 4.14236 8.11091 3.11091C9.14236 2.07946 10.5413 1.5 12 1.5C13.4587 1.5 14.8576 2.07946 15.8891 3.11091C16.9205 4.14236 17.5 5.54131 17.5 7V8ZM5 9.5H4.5V10V20V20.5H5H19H19.5V20V10V9.5H19H5ZM16 8.5H16.5V8V7C16.5 5.80653 16.0259 4.66193 15.182 3.81802C14.3381 2.97411 13.1935 2.5 12 2.5C10.8065 2.5 9.66193 2.97411 8.81802 3.81802C7.97411 4.66193 7.5 5.80653 7.5 7V8V8.5H8H16ZM12.5 14.5V15.5H11.5V14.5H12.5ZM8.5 14.5V15.5H7.5V14.5H8.5ZM16.5 14.5V15.5H15.5V14.5H16.5Z" fill="#040B20" stroke="#040B20"/>
</svg>
