<svg class="SVGInline-svg home-link__image-svg" viewBox="0 0 64 64" fill="none" xmlns="http://www.w3.org/2000/svg"><g clip-path="url(#clip0-977270)"><path d="M42.6997 36.3334C43.0277 35.9334 43.0944 35.3814 42.8704 34.9147L42.801 34.7654C43.3636 33.992 44.0836 32.7707 44.0836 30.6694C44.0836 29.7254 44.3636 29.336 44.4062 29.296C44.8222 29.192 45.1609 28.896 45.3209 28.4986C45.4702 28.1332 46.7502 24.864 46.7502 22.6693C46.7502 22.5573 46.7369 22.4479 46.7129 22.3439C46.5662 21.7599 46.1582 20.9039 45.4195 20.4025V13.3331C45.4195 9.03712 44.1075 7.27713 42.7235 6.25313C42.4624 4.184 40.2464 0 32.0837 0C23.8224 0 18.7504 7.76538 18.7504 13.3334V20.4028C18.0117 20.9041 17.6037 21.7601 17.457 22.3441C17.4304 22.4508 17.417 22.5575 17.417 22.6667C17.417 24.8614 18.697 28.1307 18.8464 28.4961C19.0064 28.8935 19.2384 29.1575 19.657 29.2615C19.8036 29.3335 20.0836 29.7229 20.0836 30.6669C20.0836 33.2003 21.985 36.0162 24.025 37.8882C23.7476 39.6349 22.4436 44.2402 19.6624 45.4029L7.82773 49.3469C4.78511 50.3602 2.50511 52.8242 1.72373 55.9389L0.120984 62.344C0.0223585 62.7414 0.110359 63.1654 0.366359 63.488C0.622359 63.8106 1.00636 64 1.41698 64H1.41961L35.921 63.9654C36.6544 63.9654 37.249 63.3494 37.249 62.6134V46.6134C37.249 45.136 38.0784 43.7868 39.409 43.088C39.785 42.8906 40.041 42.5306 40.1076 42.112C40.4357 39.9974 41.3317 38 42.6997 36.3334Z" fill="#eed024"></path><path d="M62.5853 45.2773H61.252V43.944C61.252 38.7973 57.0653 34.6106 51.9186 34.6106C46.7718 34.6106 42.5852 38.7972 42.5852 43.944V45.2773H41.2518C40.5158 45.2773 39.9185 45.8747 39.9185 46.6107V62.6107C39.9185 63.3467 40.5158 63.9441 41.2518 63.9441H62.5852C63.3212 63.9441 63.9186 63.3467 63.9186 62.6107V46.6107C63.9186 45.8746 63.3213 45.2773 62.5853 45.2773ZM53.252 55.536V57.28C53.252 58.016 52.6546 58.6133 51.9186 58.6133C51.1826 58.6133 50.5852 58.016 50.5852 57.28V55.536C49.8038 55.0693 49.2518 54.2533 49.2518 53.28C49.2518 51.8106 50.4465 50.6133 51.9185 50.6133C53.3905 50.6133 54.5851 51.8107 54.5851 53.28C54.5853 54.2533 54.0332 55.0693 53.252 55.536ZM58.5853 45.2773H45.252V43.944C45.252 40.2693 48.2413 37.2773 51.9186 37.2773C55.5958 37.2773 58.5852 40.2693 58.5852 43.944V45.2773H58.5853Z" fill="#eed024"></path></g><defs><clipPath id="clip0-977270"><rect width="64" height="64" fill="white"></rect></clipPath></defs></svg>