<svg width="15" height="15" viewBox="0 0 15 15" fill="none" xmlns="http://www.w3.org/2000/svg">
<path d="M5 3.49994C5 5.4298 6.5701 7 8.5 7C10.4299 7 12 5.4298 12 3.49994C12 1.57007 10.4299 0 8.5 0C6.5701 0 5 1.57007 5 3.49994ZM11.3637 3.49994C11.3637 5.07896 10.0791 6.36359 8.5 6.36359C6.92095 6.36359 5.6363 5.07896 5.6363 3.49994C5.6363 1.92104 6.92095 0.636409 8.5 0.636409C10.0791 0.636409 11.3637 1.92104 11.3637 3.49994Z" fill="white"/>
<path d="M3.37463 14.9211C3.48819 15.0254 3.67307 15.0265 3.78812 14.9233L5.20854 13.6486C5.44986 13.4288 5.52324 13.1033 5.41712 12.8204L5.72266 12.552C5.88716 12.4073 6.10375 12.3275 6.33271 12.3275H10.2275C10.9185 12.3275 11.5716 12.0858 12.0667 11.6469C12.0871 11.6288 11.9121 11.8166 14.7238 8.75544C15.1409 8.306 15.0785 7.63112 14.5846 7.25082C14.0939 6.87406 13.3587 6.92818 12.9405 7.3699L11.2117 8.9885C10.9934 8.74376 10.6605 8.5912 10.3008 8.5912H7.03376C6.56887 8.41404 6.07559 8.32436 5.56663 8.32436C4.15582 8.32436 2.92393 8.91791 2.26283 10.0308C1.98431 9.98269 1.69056 10.0594 1.47924 10.2519L0.0854856 11.5253C-0.0283042 11.6292 -0.0285331 11.7974 0.0850277 11.9017L3.37463 14.9211ZM5.56651 8.85805C6.01526 8.85805 6.44913 8.94033 6.85632 9.10258C6.89341 9.11739 6.93336 9.125 6.97377 9.125H10.3008C10.6185 9.125 10.8868 9.36098 10.8868 9.6587C10.8868 9.95307 10.624 10.1925 10.3008 10.1925H7.91042C7.74867 10.1925 7.61748 10.312 7.61748 10.4593C7.61748 10.6068 7.74867 10.7262 7.91042 10.7262H10.3008C10.947 10.7262 11.4727 10.2473 11.4727 9.6587C11.4727 9.61177 11.469 9.56526 11.4624 9.51917C13.1348 7.95323 13.3706 7.73321 13.3807 7.72226C13.5895 7.49775 13.9602 7.46928 14.2068 7.65865C14.4536 7.84875 14.4848 8.18619 14.2754 8.41195L11.6476 11.2735C11.2639 11.6091 10.7601 11.7938 10.2275 11.7938H6.33271C5.95104 11.7938 5.58975 11.9267 5.31569 12.1679L5.06671 12.3868L2.77145 10.2961C3.30789 9.37944 4.31448 8.85805 5.56651 8.85805ZM1.89387 10.6291C1.99049 10.5411 2.13885 10.5252 2.25665 10.5916C2.30736 10.6197 2.16175 10.499 4.79425 12.8936C4.91136 13.0003 4.90507 13.1703 4.79586 13.2697L3.58492 14.3564L0.706178 11.7141L1.89387 10.6291Z" fill="white"/>
<path d="M8.68076 2.28579V2.6206C8.29686 2.73849 8.02108 3.0561 8.02108 3.42864C8.02108 3.9012 8.46491 4.28579 9.01054 4.28579C9.19238 4.28579 9.34032 4.41395 9.34032 4.57148C9.34032 4.729 9.19238 4.85716 9.01054 4.85716C8.86969 4.85716 8.71749 4.78046 8.58231 4.64103C8.46504 4.52023 8.25704 4.50472 8.11761 4.6062C7.97817 4.70779 7.96013 4.88797 8.0774 5.00876C8.25369 5.1904 8.46104 5.317 8.68076 5.38085V5.71432C8.68076 5.87217 8.82845 6 9.01054 6C9.19263 6 9.34032 5.87217 9.34032 5.71432V5.37951C9.72422 5.26151 10 4.9439 10 4.57148C10 4.0988 9.55617 3.71432 9.01054 3.71432C8.82871 3.71432 8.68076 3.58616 8.68076 3.42864C8.68076 3.27111 8.82871 3.14284 9.01054 3.14284C9.12743 3.14284 9.25075 3.19453 9.36725 3.29221C9.49818 3.40195 9.70695 3.39894 9.83363 3.28563C9.96031 3.1722 9.95683 2.99135 9.82603 2.88161C9.65863 2.74128 9.49109 2.6619 9.34032 2.61859V2.28579C9.34032 2.12794 9.19263 2 9.01054 2C8.82845 2 8.68076 2.12794 8.68076 2.28579Z" fill="white"/>
</svg>
