<?xml version="1.0" standalone="no"?>
<!DOCTYPE svg PUBLIC "-//W3C//DTD SVG 20010904//EN"
 "http://www.w3.org/TR/2001/REC-SVG-20010904/DTD/svg10.dtd">
<svg version="1.0" xmlns="http://www.w3.org/2000/svg"
 width="1400.000000pt" height="1000.000000pt" viewBox="0 0 1400.000000 1000.000000"
 preserveAspectRatio="xMidYMid meet">

<g transform="translate(0.000000,1000.000000) scale(0.100000,-0.100000)"
fill="#960c00" stroke="none">
<path d="M5240 9142 c-119 -60 -175 -210 -121 -327 10 -22 278 -389 595 -815
l578 -775 -2074 -5 c-2063 -5 -2073 -5 -2148 -26 -106 -30 -172 -57 -248 -103
-177 -105 -321 -279 -387 -468 -58 -167 -55 -4 -55 -2938 0 -2934 -3 -2771 55
-2938 86 -245 297 -456 542 -542 170 -59 -178 -55 4858 -55 5036 0 4688 -4
4858 55 245 86 456 297 542 542 58 167 55 4 55 2938 0 2934 3 2771 -55 2938
-66 189 -210 363 -387 468 -76 46 -142 73 -248 103 -75 21 -85 21 -2163 26
l-2088 5 580 778 c318 428 586 796 595 818 9 22 16 65 16 97 -1 143 -110 252
-255 252 -70 0 -145 -31 -187 -76 -14 -16 -306 -405 -648 -864 -342 -459 -626
-835 -630 -835 -5 0 -293 382 -640 848 -348 466 -647 859 -666 873 -79 61
-185 71 -274 26z m1831 -4758 c613 -360 1126 -663 1141 -673 l28 -17 -1137
-669 c-625 -369 -1140 -671 -1145 -673 -4 -2 -8 602 -8 1342 0 740 2 1346 4
1346 1 0 504 -295 1117 -656z"/>
</g>
</svg>
