<svg width="11" height="13" viewBox="0 0 11 13" fill="none" xmlns="http://www.w3.org/2000/svg">
<path d="M0 0V13H7.58025L10.2409 10.3394V0L0 0ZM0.761717 0.761717H9.47914V9.63996H6.88082V12.2383H0.761692V0.761717H0.761717ZM9.1013 10.4017L7.64254 11.8604V10.4017H9.1013Z" fill="white"/>
<path d="M3.49536 2.32751H6.74535V3.08923H3.49536V2.32751Z" fill="white"/>
<path d="M2.00586 4.22327H8.235V4.98498H2.00586V4.22327Z" fill="white"/>
<path d="M2.00586 5.84827H8.235V6.60998H2.00586V5.84827Z" fill="white"/>
<path d="M2.00586 7.47327H8.235V8.23498H2.00586V7.47327Z" fill="white"/>
<path d="M2.00586 9.64001H2.80564V10.4017H2.00586V9.64001Z" fill="white"/>
<path d="M3.56738 9.64001H5.12047V10.4017H3.56738V9.64001Z" fill="white"/>
</svg>
