<svg xmlns="http://www.w3.org/2000/svg" viewBox="0 0 74.78 75.13"><defs><style>.cls-1{fill:#000;}</style></defs><g id="Layer_2" data-name="Layer 2"><g id="Layer_1-2" data-name="Layer 1"><path class="cls-1" d="M30.51,72.56,2.36,44.49a.67.67,0,0,0-1.13.34C1,46,.81,47.07.67,48c-1.5,10-.41,19.55,2.65,23.12C6,74.26,12.26,75,15.76,75.09c.58,0,1.18,0,1.79,0a59.44,59.44,0,0,0,12.63-1.44A.67.67,0,0,0,30.51,72.56Z"/><path class="cls-1" d="M74.78,17.22c0-3.1-.45-10.66-3.64-13.71C67.79.29,58.29-.87,48.05.68c-1.44.22-3.13.53-5,1a.67.67,0,0,0-.32,1.13L72,31.94a.67.67,0,0,0,1.12-.32A60.76,60.76,0,0,0,74.78,17.22Z"/><path class="cls-1" d="M71.09,37.28,37.38,3.66a.66.66,0,0,0-.69-.16A54,54,0,0,0,16,16.14,54.34,54.34,0,0,0,2.92,38.32a.66.66,0,0,0,.16.67L35.93,71.75a.68.68,0,0,0,.69.16,55.83,55.83,0,0,0,22-13.24A54.38,54.38,0,0,0,71.25,38,.64.64,0,0,0,71.09,37.28ZM52.38,32.1a2.21,2.21,0,0,1-3.12,0L48,30.83a.68.68,0,0,0-.95,0l-1.46,1.46a.68.68,0,0,0,0,1l1.23,1.23a2.24,2.24,0,0,1,.06,3.15,2.19,2.19,0,0,1-1.57.65,2.16,2.16,0,0,1-1.55-.64l-1.28-1.28a.68.68,0,0,0-1,0L40,37.91a.68.68,0,0,0,0,1L41.13,40a2.25,2.25,0,0,1,0,3.15,2.16,2.16,0,0,1-1.56.65,2.2,2.2,0,0,1-1.56-.64l-1.7-1.7-1.93,1.93a.66.66,0,0,0,0,1l1.18,1.18a2.25,2.25,0,0,1,0,3.15,2.21,2.21,0,0,1-3.12,0l-1.23-1.23a.66.66,0,0,0-.94,0L29,48.85a.68.68,0,0,0,0,.95L30.24,51a2.24,2.24,0,0,1,.06,3.15,2.22,2.22,0,0,1-3.13,0l-1.29-1.3a.66.66,0,0,0-.92,0L24.9,53a2.2,2.2,0,0,1-3.21-.11,2.24,2.24,0,0,1,.14-3.05.66.66,0,0,0,0-.95L20.6,47.61a2.24,2.24,0,0,1-.12-3.08,2.21,2.21,0,0,1,3.19-.07L25,45.74a.68.68,0,0,0,.95,0l1.35-1.36a.68.68,0,0,0,0-1L26,42.14a2.25,2.25,0,0,1-.11-3.08A2.19,2.19,0,0,1,29,39l1.34,1.33a.66.66,0,0,0,.94,0l1.46-1.46a.66.66,0,0,0,0-1l-1.28-1.29a2.24,2.24,0,0,1-.12-3.08,2.21,2.21,0,0,1,3.19-.08l1.33,1.34a.68.68,0,0,0,1,0l1.55-1.56a.66.66,0,0,0,0-1l-1.23-1.24A2.24,2.24,0,0,1,37,28a2.21,2.21,0,0,1,3.19-.07l1.28,1.28a.68.68,0,0,0,1,0l1.46-1.46a.68.68,0,0,0,0-.95l-1.24-1.24a2.25,2.25,0,0,1-.12-3.08,2.21,2.21,0,0,1,3.19-.08L47,23.65a.66.66,0,0,0,.95,0l.71-.71a2.25,2.25,0,0,1,3.08-.12A2.21,2.21,0,0,1,51.85,26l-.76.76a.68.68,0,0,0,0,.95L52.32,29A2.24,2.24,0,0,1,52.38,32.1Z"/></g></g></svg>