<svg xmlns="http://www.w3.org/2000/svg" viewBox="0 0 75.13 75.13"><defs><style>.cls-1{fill:#fff;}</style></defs><g id="Layer_2" data-name="Layer 2"><g id="Layer_1-2" data-name="Layer 1"><path class="cls-1" d="M5.15,20.54h6.59V3.43L3,.14A2.21,2.21,0,0,0,.71.58,2.24,2.24,0,0,0,.08,2.81Z"/><path class="cls-1" d="M5.87,25.68a8.07,8.07,0,0,0,16.14,0v-.74H5.87Z"/><path class="cls-1" d="M27.79,2.81A2.2,2.2,0,0,0,24.91.14L16.14,3.43V20.54h6.59Z"/><path class="cls-1" d="M17.5,51.41a2.21,2.21,0,0,0-3.12,0L1.93,63.86a6.6,6.6,0,0,0,9.34,9.34L23.72,60.74a2.16,2.16,0,0,0,.65-1.55,2.19,2.19,0,0,0-.65-1.56Z"/><path class="cls-1" d="M69.27,5.86C64.91,1.51,58.8-.53,52.06.12A29.92,29.92,0,0,0,34,9,29.92,29.92,0,0,0,25.14,27,21.23,21.23,0,0,0,29.41,42.6l-7.25,7.25L25.28,53l7.24-7.24a20.8,20.8,0,0,0,13.12,4.39c.8,0,1.62,0,2.44-.12a29.9,29.9,0,0,0,18.07-8.85A29.91,29.91,0,0,0,75,23.06c.65-6.74-1.39-12.85-5.74-17.2Zm-10.46-1a15.42,15.42,0,0,1,5.67,2.62l-3.82,3.83L56.51,7.21ZM42.4,21.32l3.94-3.94,4.15,4.15-3.94,3.94Zm1,7.26-3.94,3.94-4.15-4.15,3.94-3.94ZM53.6,24.64l4.15,4.15-3.94,3.94-4.15-4.15Zm3.11-3.11,3.95-4,4.15,4.15-4,3.95ZM53.39,10.32l4.15,4.15L53.6,18.41l-4.15-4.15Zm-5-5,1.91,1.92-3.94,3.94L42.85,7.66a25,25,0,0,1,5.52-2.37ZM37.1,12.08c.67-.66,1.36-1.29,2.07-1.87l4.06,4-3.95,4-4.05-4.06C35.81,13.44,36.44,12.75,37.1,12.08Zm-4.42,5.75,3.49,3.49-3.94,3.94-1.92-1.91A25,25,0,0,1,32.68,17.83Zm-2.76,16,2.31-2.3,4.15,4.15-3.83,3.82A15.6,15.6,0,0,1,29.92,33.79ZM41.34,45.2a15.7,15.7,0,0,1-5.68-2.62l3.83-3.83,4.15,4.15Zm5.41-5.41L42.6,35.64l3.95-3.95,4.15,4.15Zm5,5L49.87,42.9,53.81,39l3.49,3.49a25,25,0,0,1-5.52,2.36ZM63,38A26.2,26.2,0,0,1,61,39.9l-4-4.06,3.94-3.94L64.92,36A26.2,26.2,0,0,1,63,38Zm4.43-5.74L64,28.79l3.94-3.94,1.91,1.91a25,25,0,0,1-2.36,5.52Zm.45-13.66-4.15-4.15,3.83-3.83a15.7,15.7,0,0,1,2.62,5.68Z"/></g></g></svg>