<svg xmlns="http://www.w3.org/2000/svg" viewBox="0 0 128.09 128.08"><defs><style>.cls-1{fill:#fff;}</style></defs><g id="Layer_2" data-name="Layer 2"><g id="Layer_1-2" data-name="Layer 1"><path class="cls-1" d="M113,22.75a73.23,73.23,0,0,0-9.88,21.49l6.06,2.32A6.14,6.14,0,1,1,104.74,58l-4-1.52a75,75,0,0,0,0,15.06l4-1.52a6.14,6.14,0,0,1,4.39,11.47l-6.06,2.32A73.23,73.23,0,0,0,113,105.33,63.88,63.88,0,0,0,113,22.75Z"/><path class="cls-1" d="M86.6,90.15a6.14,6.14,0,1,1-4.39-11.46L89,76.1A87.37,87.37,0,0,1,89,52L82.21,49.4A6.14,6.14,0,0,1,86.6,37.93l5,1.9A86.12,86.12,0,0,1,104,14.06a63.89,63.89,0,0,0-80,0A85.85,85.85,0,0,1,36.53,39.83l5-1.9A6.14,6.14,0,1,1,45.88,49.4L39.13,52a87.37,87.37,0,0,1,0,24.12l6.75,2.59a6.14,6.14,0,1,1-4.39,11.46l-5-1.9A85.85,85.85,0,0,1,24.06,114a63.89,63.89,0,0,0,80,0A86.12,86.12,0,0,1,91.55,88.25Z"/><path class="cls-1" d="M23.34,70.06l4,1.51a75,75,0,0,0,0-15.06l-4,1.52A6.14,6.14,0,0,1,19,46.56L25,44.24a73.74,73.74,0,0,0-9.88-21.49,63.89,63.89,0,0,0,0,82.59A73.8,73.8,0,0,0,25,83.84L19,81.52a6.14,6.14,0,0,1,4.39-11.46Z"/></g></g></svg>