<svg height="512" viewBox="0 0 43 58" width="512" xmlns="http://www.w3.org/2000/svg"><g id="Page-1" fill="none" fill-rule="evenodd"><g id="006---Glove" fill-rule="nonzero" transform="translate(-1 -1)"><path id="Shape" d="m35.74 14.53c3.99-2.06 8.26-2.26 8.26 5.47 0 14-14 25-14 25l-11 2-12-2c-4.01-7.32-4.88-18.21-5.02-24.65z" fill="#c03a2b"/><path id="Shape" d="m20.744 37.5 3.829-2.681c.3047965-.1998278.4767398-.5496556.4487678-.9130419-.027972-.3633864-.251429-.6827779-.5832174-.833604s-.7193592-.109199-1.0115504.1086459l-4.427 3.098-4.427-3.1c-.4520489-.296368-1.0577858-.1798706-1.3676555.2630322-.3098698.4429029-.2116982 1.0518784.2216555 1.3749678l3.829 2.683-3.829 2.681c-.3047965.1998278-.4767398.5496556-.4487678.9130419.027972.3633864.251429.6827779.5832174.833604s.7193592.109199 1.0115504-.1086459l4.427-3.098 4.427 3.1c.2921912.2178449.679762.259472 1.0115504.1086459s.5552454-.4702176.5832174-.833604c.027972-.3633863-.1439713-.7132141-.4487678-.9130419z" fill="#fff"/><path id="Shape" d="m30 45v12c-.0032948 1.1032019-.8967981 1.9967052-2 2h-19c-1.10320187-.0032948-1.9967052-.8967981-2-2v-12z" fill="#e64c3c"/><path id="Shape" d="m15 49h15v6h-15c-.5522847 0-1-.4477153-1-1v-4c0-.5522847.4477153-1 1-1z" fill="#f9eab0"/><path id="Shape" d="m35.74 14.53c-.0913269 1.5163374-.3461375 3.0183785-.76 4.48-4.62 17.06-27.91 13.18-33 1.34v-.02c-.60094675-1.3637413-.93367069-2.8304427-.98-4.32-.55-15.99 17.44-15 17.44-15s18.11-.83 17.3 13.52z" fill="#e64c3c"/><path id="Shape" d="m16.017 5.054c-.0362277-.26287922-.1754559-.50057993-.3870245-.66075687-.2115686-.16017695-.4781272-.22969424-.7409755-.19324313-4.071.565-9.207 2.523-10.563 8.651-.11901516.5393057.22169523 1.0729808.761 1.192.07116017.0163746.14398142.0244285.217.024.46853359-.0006529.8737971-.3265264.975-.784 1.107-5.006 5.443-6.625 8.885-7.1.2628954-.03645832.5005135-.17593227.6605096-.38769737.1599961-.21176509.2292445-.47844838.1924904-.74130263z" fill="#fff"/></g></g></svg>