<?xml version="1.0" encoding="utf-8"?>
<!-- Generator: Adobe Illustrator 16.0.2, SVG Export Plug-In . SVG Version: 6.00 Build 0)  -->
<!DOCTYPE svg PUBLIC "-//W3C//DTD SVG 1.1//EN" "http://www.w3.org/Graphics/SVG/1.1/DTD/svg11.dtd">
<svg version="1.1" id="Layer_1" xmlns="http://www.w3.org/2000/svg" xmlns:xlink="http://www.w3.org/1999/xlink" x="0px" y="0px"
	 width="275.339px" height="521.004px" viewBox="0 0 275.339 521.004" enable-background="new 0 0 275.339 521.004"
	 xml:space="preserve">
<path fill="#FFFFFF" d="M128.621,12.249c-27.934,8.469-38.27,44.218-18.127,66.458c16.091,17.765,43.692,18.831,60.191,0.472
	c21.594-24.026,11.007-58.519-20.106-67.666c-1.408-0.413-3.587-0.002-3.618-2.512c-4.666,0-9.333,0-13.998,0
	C132.733,11.691,130.337,11.728,128.621,12.249z"/>
<path fill="#FFFFFF" d="M129.103,10.701c-18.949,5.894-30.916,22.32-30.394,41.945c0.584,21.905,17.405,39.195,39.863,40.974
	c20.638,1.634,39.738-13.5,44.005-34.863c4.04-20.234-8.743-41.331-28.772-47.805c-2.271-0.734-4.886-0.223-6.845-1.952
	c0.031,2.51,2.21,2.099,3.618,2.512c31.113,9.146,41.7,43.639,20.106,67.666c-16.499,18.359-44.101,17.293-60.191-0.472
	c-20.143-22.239-9.807-57.989,18.127-66.458c1.717-0.521,4.112-0.558,4.342-3.249C132.208,10.727,130.383,10.302,129.103,10.701z"/>
<path fill="#FFFFFF" d="M214.395,123.423c-4.336-4.879-9.542-7.428-15.901-8.405c-33.215-5.104-66.416-10.294-99.604-15.575
	c-6.107-0.971-11.588,0.094-16.557,3.668c-24.049,17.293-48.066,34.63-72.111,51.929c-5.827,4.192-8.871,9.929-8.994,16.991
	c-0.496,28.487-0.857,56.977-1.227,85.468c-0.063,4.838,1.611,9.134,4.684,12.854c5.555,6.726,14.4,9.172,22.556,6.286
	c8.136-2.879,13.479-10.395,13.64-19.614c0.408-23.489,0.777-46.981,0.979-70.474c0.026-3.007,0.977-4.772,3.385-6.478
	c13.986-9.907,27.847-19.99,41.787-29.961c0.809-0.578,1.449-1.973,3.074-1.076c1.605,40.031,3.191,80.146,4.877,120.256
	c0.107,2.555-0.942,4.463-2.107,6.464c-14.131,24.274-28.317,48.517-42.367,72.838c-7.065,12.229-4.272,25.282,7.112,33.513
	c20.363,14.722,40.837,29.292,61.175,44.049c2.254,1.636,3.619,1.909,5.918-0.003c5.674-4.718,12.279-7.849,19.313-10.081
	c8.051-2.554,16.346-2.657,24.796-2.241c-0.519-8.915-4.477-15.427-11.417-20.381c-16.795-11.986-33.445-24.179-50.343-36.018
	c-3.151-2.208-3.063-3.606-1.267-6.61c8.526-14.265,16.918-28.615,25.047-43.11c1.991-3.552,4.325-4.795,8.228-4.721
	c5.655,0.107,11.37,0.071,16.964-0.648c4.234-0.545,5.718,0.904,6.834,4.777c10.851,37.667,21.917,75.271,32.811,112.925
	c0.827,2.857,2.188,4.897,4.42,6.879c18.77,16.666,25.366,37.442,19.236,61.7c-2.449,9.698,0.39,17.411,6.249,24.284
	c7.499,8.798,20.08,10.474,30.033,4.797c10.301-5.875,14.601-17.351,10.977-29.783c-20.586-70.639-41.248-141.256-61.729-211.925
	c-1.253-4.323-2.66-4.19-5.763-1.963c-7.076,5.081-14.91,8.178-23.776,7.425c-15.562-1.321-27.635-11.528-31.091-26.007
	c-3.415-14.307,2.555-28.737,15.563-37.022c12.34-7.859,24.758-15.6,37.26-23.197c2.34-1.422,3.063-2.892,2.982-5.54
	c-0.211-6.908-0.071-13.827-0.071-21.065c7.675,8.533,15.411,17.135,23.119,25.706c-0.958,1.744-2.62,2.27-4,3.132
	c-16.916,10.576-33.854,21.119-50.777,31.684c-11.196,6.99-14.575,18.8-8.333,29.043c6.195,10.166,18.576,12.635,29.639,5.771
	c24.864-15.426,49.708-30.884,74.517-46.396c13.004-8.132,14.886-22.036,4.629-33.477
	C250.634,163.869,232.432,143.719,214.395,123.423z"/>
<path fill="#FFFFFF" d="M161.956,430.535c-25.123-0.209-45.906,20.104-45.884,44.848c0.021,24.868,20.277,45.479,44.764,45.548
	c25.171,0.071,45.898-20.207,45.897-44.902C206.732,451.117,186.675,430.74,161.956,430.535z"/>
</svg>
