<svg width="17" height="18" viewBox="0 0 17 18" fill="none" xmlns="http://www.w3.org/2000/svg">
<path d="M16.0771 18H4.97638C4.76609 18 4.56441 17.9185 4.41571 17.7735C4.26701 17.6284 4.18347 17.4317 4.18347 17.2266C4.18347 17.0215 4.26701 16.8248 4.41571 16.6798C4.56441 16.5347 4.76609 16.4532 4.97638 16.4532H16.0771C16.2874 16.4532 16.4891 16.5347 16.6378 16.6798C16.7865 16.8248 16.8701 17.0215 16.8701 17.2266C16.8701 17.4317 16.7865 17.6284 16.6378 17.7735C16.4891 17.9185 16.2874 18 16.0771 18Z" fill="white"/>
<path d="M15.9272 6.66709C15.5195 6.31245 15.0241 6.06742 14.4898 5.95609C13.9556 5.84477 13.4008 5.87098 12.8801 6.03215L4.59254 8.55797L1.49543 -0.00012207L0 0.514168L4.64805 13.3598C4.81254 13.8119 5.11645 14.2033 5.51807 14.4802C5.9197 14.7572 6.39934 14.9061 6.89119 14.9066H9.7544C9.22964 14.2412 8.94378 13.4259 8.94087 12.5864C8.93827 11.6763 9.26572 10.7945 9.86531 10.0971C10.4649 9.3997 11.298 8.93152 12.2173 8.77536C13.1367 8.6192 14.083 8.78513 14.889 9.2438C15.695 9.70247 16.3088 10.4243 16.6218 11.2818L16.9469 9.53783C17.0468 9.01416 17.0053 8.47416 16.8265 7.97086C16.6477 7.46756 16.3378 7.01826 15.9272 6.66709Z" fill="white"/>
<path d="M12.9055 14.9064C14.2192 14.9064 15.2842 13.8677 15.2842 12.5863C15.2842 11.305 14.2192 10.2662 12.9055 10.2662C11.5917 10.2662 10.5267 11.305 10.5267 12.5863C10.5267 13.8677 11.5917 14.9064 12.9055 14.9064Z" fill="white"/>
</svg>
