<svg width="18" height="18" viewBox="0 0 18 18" fill="none" xmlns="http://www.w3.org/2000/svg">
<path d="M14.6778 8.03058C15.9985 8.03058 17.0691 6.95194 17.0691 5.62137C17.0691 4.2908 15.9985 3.21216 14.6778 3.21216C13.3571 3.21216 12.2865 4.2908 12.2865 5.62137C12.2865 6.95194 13.3571 8.03058 14.6778 8.03058Z" fill="Black"/>
<path d="M11.4893 3.21228C12.3698 3.21228 13.0835 2.49319 13.0835 1.60614C13.0835 0.719093 12.3698 0 11.4893 0C10.6089 0 9.89514 0.719093 9.89514 1.60614C9.89514 2.49319 10.6089 3.21228 11.4893 3.21228Z" fill="Black"/>
<path d="M9.09804 4.48592V0.80304H7.50385V4.81839C7.5039 5.03136 7.58791 5.23559 7.7374 5.38616L9.56514 7.2276L0 16.8644L1.12709 18L6.70676 12.3785L8.52732 14.2143L5.89611 16.8644L7.0256 18L9.97485 15.023C10.1216 14.8736 10.2045 14.6722 10.2055 14.462C10.2065 14.2518 10.1257 14.0495 9.98043 13.8987L13.0835 10.7723L16.8729 14.5901L18 13.4546L9.09804 4.48592Z" fill="Black"/>
</svg>
