<svg xmlns="http://www.w3.org/2000/svg" viewBox="0 0 75.13 75.13"><defs><style>.cls-1{fill:#000;}</style></defs><g id="Layer_2" data-name="Layer 2"><g id="Layer_1-2" data-name="Layer 1"><path class="cls-1" d="M73.83.52a3,3,0,0,0-4.13.78L30.14,59.18a7.66,7.66,0,0,1-6.33,3.35H3a3,3,0,0,0-3,3v6.65a3,3,0,0,0,3,3H19.25a13.63,13.63,0,0,0,11.26-5.95L74.61,4.65A3,3,0,0,0,73.83.52Z"/><path class="cls-1" d="M1,18.09c6.7,3.71,22.9,2.59,26.13-.65a10,10,0,0,0-3.77-1.78C15.16,13.32,2.75,14.73.1,17.44A4.13,4.13,0,0,0,1,18.09Z"/><path class="cls-1" d="M3.87,29.87a40.54,40.54,0,0,0,19.49,0C26,29.11,27,28.27,27.23,28V22.83c-7,3-20.28,3-27.23,0V28c.21.3,1.24,1.14,3.87,1.9Z"/></g></g></svg>