<svg xmlns="http://www.w3.org/2000/svg" viewBox="0 0 256 256"><defs><style>.cls-1{fill:#faab34;}.cls-2{fill:#fff;}.cls-3{fill:none;}</style></defs><g id="Layer_2" data-name="Layer 2"><g id="Layer_1-2" data-name="Layer 1"><g id="Path_21824" data-name="Path 21824"><path class="cls-1" d="M47.15,204.72V216H202.32V128.37C165.14,175.79,107.11,199.32,47.15,204.72Z"/></g><g id="Path_21824-2" data-name="Path 21824"><path class="cls-2" d="M202.32,96.79a.77.77,0,0,0-.26-.62,1,1,0,0,0-.74-.22.69.69,0,0,0-.48.29l-.07.09A220.15,220.15,0,0,1,47.9,179.46a.9.9,0,0,0-.75.77v32.23A3.5,3.5,0,0,0,50.63,216H198.84a3.5,3.5,0,0,0,3.48-3.49Zm6,118.31a6.79,6.79,0,0,1-6.8,6.8H48a6.8,6.8,0,0,1-6.8-6.8v-35a.76.76,0,0,1,0-.15,6.86,6.86,0,0,1,6.12-6.44h0A214.14,214.14,0,0,0,196.05,92.69a6.81,6.81,0,0,1,9.47-1.38,6.7,6.7,0,0,1,2.76,5.48Z"/></g><path class="cls-2" d="M77,146.46a3,3,0,0,0,3.75,2,227.84,227.84,0,0,0,75.68-40.78C175.59,92,186.4,77.61,190,72.49A19.61,19.61,0,1,0,184.46,70a184.6,184.6,0,0,1-32.05,33.32A221.86,221.86,0,0,1,78.94,142.8a3,3,0,0,0-2,3.66Zm-14,3.67A3,3,0,0,0,59.45,148c-3.83.81-10.82,2.25-15,2.91a3,3,0,0,0,.47,5.92,3.59,3.59,0,0,0,.47,0q7.89-1.26,15.31-2.93a3,3,0,0,0,2.2-3.72Zm133.3-82.91a13.48,13.48,0,0,1-6.2-1l-.13-.06a13.6,13.6,0,1,1,6.33,1.06Z"/><rect class="cls-3" width="256" height="256"/></g></g></svg>