<svg xmlns="http://www.w3.org/2000/svg" viewBox="0 0 256 256"><defs><style>.cls-1{fill:#faab34;}.cls-2{fill:#fff;}.cls-3{fill:none;}</style></defs><g id="Layer_2" data-name="Layer 2"><g id="Layer_1-2" data-name="Layer 1"><path class="cls-1" d="M98.92,41.1a75.66,75.66,0,1,0,75.66,75.66A75.65,75.65,0,0,0,98.92,41.1ZM82.5,163a33.6,33.6,0,1,1,33.6-33.6A33.6,33.6,0,0,1,82.5,163Z"/><path class="cls-2" d="M198.47,147.15a25.77,25.77,0,1,0,25.77,25.76A25.81,25.81,0,0,0,198.47,147.15Zm0,44.06a18.29,18.29,0,1,1,18.28-18.3A18.31,18.31,0,0,1,198.47,191.21Z"/><path id="Path_21679" data-name="Path 21679" class="cls-2" d="M99.41,122.82a12.35,12.35,0,0,0-4.58-7.62,12.34,12.34,0,0,0-8.22-3.46,9.49,9.49,0,0,0-7.23,3.59,8.54,8.54,0,0,0-2.1,4.44,9.47,9.47,0,0,0,.6,4.91,10.26,10.26,0,0,0-5.47-.09,9.08,9.08,0,0,0-4.64,3,9.56,9.56,0,0,0-2.46,8,13.52,13.52,0,0,0,4.92,8.06,13.41,13.41,0,0,0,8.66,3.78,9.58,9.58,0,0,0,7.55-3.69,9.06,9.06,0,0,0,2.28-5,10.59,10.59,0,0,0-.87-5.44,9.61,9.61,0,0,0,4.91-.08,8.56,8.56,0,0,0,4.11-2.69A9.5,9.5,0,0,0,99.41,122.82ZM81.26,138.55a5.2,5.2,0,0,1-3.49,1.95,5.67,5.67,0,0,1-5.59-4.92,5.22,5.22,0,0,1,1.44-3.69,5.29,5.29,0,0,1,3.55-2,5,5,0,0,1,3.69,1.34,4.92,4.92,0,0,1,1.86,3.53A5.24,5.24,0,0,1,81.26,138.55ZM91.2,126a5.3,5.3,0,0,1-3.27,1.93,3.87,3.87,0,0,1-3.26-1.08,4,4,0,0,1-1.54-3.1,5.25,5.25,0,0,1,1.45-3.39,4.87,4.87,0,0,1,3.12-1.88,4,4,0,0,1,3.22,1.13,4,4,0,0,1,1.56,3.06A5,5,0,0,1,91.09,126Z"/><path id="Path_21680" data-name="Path 21680" class="cls-2" d="M204,175.12V160.53h-4.69l-9.76,15.41.22,2.93h9.58v5H204v-5h2.65v-3.75Zm-4.67,0H194.2l4.85-7.7.3-.54Z"/><path class="cls-2" d="M98.94,192a75.19,75.19,0,1,1,75.16-75.21A75.29,75.29,0,0,1,98.94,192Zm42.82,6.44a52.88,52.88,0,0,1-6.15-7.54,82.22,82.22,0,0,0,46-74.11,77.08,77.08,0,0,0-.38-7.78A52.73,52.73,0,0,1,228,182.36a52.51,52.51,0,0,1-65.49,29.15,3.75,3.75,0,0,0-4.69,2.05h0a3.75,3.75,0,0,0,2.2,5,59.45,59.45,0,0,0,42.19-1.1,59.06,59.06,0,0,0,32.57-32l.17-.35a60.1,60.1,0,0,0-31.78-78.84,61.4,61.4,0,0,0-23-4.85,82.65,82.65,0,1,0-81.19,98,81.37,81.37,0,0,0,29.73-5.55,60.83,60.83,0,0,0,7.83,9.82,3.73,3.73,0,0,0,5.35-.08h0A3.74,3.74,0,0,0,141.76,198.39Z"/><path class="cls-2" d="M82.5,88.77a40.61,40.61,0,1,0,40.61,40.6A40.65,40.65,0,0,0,82.5,88.77Zm0,73.74a33.13,33.13,0,1,1,33.14-33.14A33.17,33.17,0,0,1,82.5,162.51Z"/><rect class="cls-3" width="256" height="256"/></g></g></svg>